<svg width="451" height="338" viewBox="0 0 451 338" fill="none" xmlns="http://www.w3.org/2000/svg">
<g clip-path="url(#clip0_1_84)">
<path d="M444.987 0.563232H6.0133C3.00358 0.563232 0.563721 3.00129 0.563721 6.00879V331.991C0.563721 334.999 3.00358 337.437 6.0133 337.437H444.987C447.996 337.437 450.436 334.999 450.436 331.991V6.00879C450.436 3.00129 447.996 0.563232 444.987 0.563232Z" fill="white"/>
<path d="M18.7886 52.5777V45.8628H23.1633V46.674H19.6726V48.8011H22.9829V49.6123H19.6726V51.7665H23.1633V52.5777H18.7886ZM24.1145 52.5777V47.7195H24.9353V48.6659L24.8 48.5848C24.9202 48.2784 25.1127 48.041 25.3773 47.8728C25.6479 47.6985 25.9636 47.6114 26.3244 47.6114C26.6731 47.6114 26.9828 47.6895 27.2534 47.8457C27.53 48.002 27.7465 48.2183 27.9029 48.4947C28.0652 48.7711 28.1464 49.0836 28.1464 49.4321V52.5777H27.2985V49.7025C27.2985 49.4321 27.2504 49.2037 27.1542 49.0175C27.058 48.8312 26.9197 48.687 26.7393 48.5848C26.5649 48.4767 26.3634 48.4226 26.1349 48.4226C25.9064 48.4226 25.702 48.4767 25.5216 48.5848C25.3472 48.687 25.2089 48.8342 25.1067 49.0265C25.0044 49.2128 24.9533 49.4381 24.9533 49.7025V52.5777H24.1145ZM31.6198 54.5607C31.277 54.5607 30.9583 54.5066 30.6637 54.3984C30.375 54.2903 30.1255 54.14 29.915 53.9478C29.7106 53.7615 29.5542 53.5422 29.446 53.2898L30.2307 52.9293C30.3149 53.1576 30.4743 53.3499 30.7088 53.5061C30.9493 53.6683 31.25 53.7495 31.6108 53.7495C31.8874 53.7495 32.137 53.6954 32.3595 53.5872C32.588 53.4851 32.7684 53.3288 32.9007 53.1185C33.0329 52.9142 33.0991 52.6649 33.0991 52.3704V51.2798L33.2524 51.4421C33.0841 51.7725 32.8405 52.0249 32.5218 52.1992C32.2091 52.3734 31.8633 52.4606 31.4845 52.4606C31.0275 52.4606 30.6186 52.3554 30.2578 52.1451C29.897 51.9288 29.6144 51.6373 29.4099 51.2708C29.2055 50.8982 29.1032 50.4866 29.1032 50.036C29.1032 49.5793 29.2055 49.1677 29.4099 48.8011C29.6144 48.4346 29.894 48.1462 30.2488 47.9359C30.6096 47.7195 31.0185 47.6114 31.4755 47.6114C31.8543 47.6114 32.1971 47.6985 32.5038 47.8728C32.8165 48.041 33.066 48.2754 33.2524 48.5758L33.1262 48.8011V47.7195H33.947V52.3704C33.947 52.791 33.8477 53.1666 33.6493 53.4971C33.4509 53.8276 33.1743 54.086 32.8195 54.2722C32.4707 54.4645 32.0708 54.5607 31.6198 54.5607ZM31.5567 51.6494C31.8453 51.6494 32.1039 51.5773 32.3324 51.433C32.5669 51.2888 32.7533 51.0965 32.8916 50.8562C33.0299 50.6098 33.0991 50.3364 33.0991 50.036C33.0991 49.7415 33.0299 49.4711 32.8916 49.2248C32.7533 48.9784 32.5669 48.7831 32.3324 48.6389C32.1039 48.4947 31.8453 48.4226 31.5567 48.4226C31.262 48.4226 30.9944 48.4947 30.7539 48.6389C30.5134 48.7831 30.3239 48.9784 30.1856 49.2248C30.0533 49.4651 29.9872 49.7355 29.9872 50.036C29.9872 50.3364 30.0533 50.6098 30.1856 50.8562C30.3239 51.0965 30.5104 51.2888 30.7449 51.433C30.9854 51.5773 31.256 51.6494 31.5567 51.6494ZM35.2024 52.5777V47.7195H36.0412V52.5777H35.2024ZM35.2024 46.9444V45.8628H36.0412V46.9444H35.2024ZM37.2977 52.5777V47.7195H38.1185V48.6659L37.9832 48.5848C38.1035 48.2784 38.2959 48.041 38.5605 47.8728C38.8311 47.6985 39.1468 47.6114 39.5076 47.6114C39.8563 47.6114 40.166 47.6895 40.4366 47.8457C40.7132 48.002 40.9297 48.2183 41.0861 48.4947C41.2484 48.7711 41.3296 49.0836 41.3296 49.4321V52.5777H40.4817V49.7025C40.4817 49.4321 40.4336 49.2037 40.3374 49.0175C40.2412 48.8312 40.1029 48.687 39.9225 48.5848C39.7481 48.4767 39.5467 48.4226 39.3182 48.4226C39.0896 48.4226 38.8852 48.4767 38.7048 48.5848C38.5304 48.687 38.3921 48.8342 38.2899 49.0265C38.1876 49.2128 38.1365 49.4381 38.1365 49.7025V52.5777H37.2977ZM44.7219 52.6859C44.2528 52.6859 43.8349 52.5747 43.4681 52.3524C43.1013 52.1301 42.8127 51.8266 42.6022 51.4421C42.3917 51.0515 42.2865 50.6158 42.2865 50.1351C42.2865 49.6484 42.3887 49.2158 42.5932 48.8372C42.8036 48.4586 43.0863 48.1612 43.441 47.9449C43.8018 47.7226 44.2047 47.6114 44.6497 47.6114C45.0105 47.6114 45.3292 47.6775 45.6058 47.8097C45.8885 47.9359 46.126 48.1101 46.3184 48.3325C46.5169 48.5488 46.6672 48.7981 46.7694 49.0806C46.8777 49.357 46.9318 49.6454 46.9318 49.9458C46.9318 50.0119 46.9258 50.087 46.9137 50.1712C46.9077 50.2493 46.8987 50.3244 46.8867 50.3965H42.8998V49.6754H46.3996L46.0027 49.9999C46.0568 49.6875 46.0268 49.408 45.9125 49.1617C45.7983 48.9153 45.6299 48.72 45.4074 48.5758C45.1849 48.4316 44.9324 48.3595 44.6497 48.3595C44.3671 48.3595 44.1085 48.4316 43.874 48.5758C43.6395 48.72 43.4561 48.9273 43.3238 49.1977C43.1975 49.4621 43.1464 49.7776 43.1704 50.1441C43.1464 50.4987 43.2005 50.8111 43.3328 51.0815C43.4711 51.3459 43.6635 51.5532 43.9101 51.7034C44.1626 51.8477 44.4363 51.9198 44.7309 51.9198C45.0556 51.9198 45.3292 51.8446 45.5517 51.6944C45.7742 51.5442 45.9546 51.3519 46.0929 51.1176L46.7965 51.4781C46.7003 51.7004 46.5499 51.9047 46.3455 52.091C46.147 52.2713 45.9095 52.4155 45.6329 52.5237C45.3623 52.6318 45.0586 52.6859 44.7219 52.6859ZM50.2173 52.6859C49.7483 52.6859 49.3304 52.5747 48.9635 52.3524C48.5967 52.1301 48.3081 51.8266 48.0976 51.4421C47.8871 51.0515 47.7819 50.6158 47.7819 50.1351C47.7819 49.6484 47.8841 49.2158 48.0886 48.8372C48.2991 48.4586 48.5817 48.1612 48.9365 47.9449C49.2973 47.7226 49.7002 47.6114 50.1452 47.6114C50.506 47.6114 50.8247 47.6775 51.1013 47.8097C51.3839 47.9359 51.6214 48.1101 51.8139 48.3325C52.0123 48.5488 52.1626 48.7981 52.2649 49.0806C52.3731 49.357 52.4272 49.6454 52.4272 49.9458C52.4272 50.0119 52.4212 50.087 52.4092 50.1712C52.4032 50.2493 52.3941 50.3244 52.3821 50.3965H48.3953V49.6754H51.895L51.4982 49.9999C51.5523 49.6875 51.5222 49.408 51.408 49.1617C51.2937 48.9153 51.1253 48.72 50.9028 48.5758C50.6803 48.4316 50.4278 48.3595 50.1452 48.3595C49.8625 48.3595 49.604 48.4316 49.3694 48.5758C49.1349 48.72 48.9515 48.9273 48.8192 49.1977C48.6929 49.4621 48.6418 49.7776 48.6659 50.1441C48.6418 50.4987 48.6959 50.8111 48.8282 51.0815C48.9665 51.3459 49.159 51.5532 49.4055 51.7034C49.6581 51.8477 49.9317 51.9198 50.2263 51.9198C50.5511 51.9198 50.8247 51.8446 51.0472 51.6944C51.2697 51.5442 51.4501 51.3519 51.5884 51.1176L52.2919 51.4781C52.1957 51.7004 52.0454 51.9047 51.8409 52.091C51.6425 52.2713 51.4049 52.4155 51.1283 52.5237C50.8577 52.6318 50.5541 52.6859 50.2173 52.6859ZM53.4758 52.5777V47.7195H54.2966V48.6119L54.2064 48.4857C54.3207 48.2093 54.495 48.005 54.7296 47.8728C54.9641 47.7346 55.2497 47.6655 55.5865 47.6655H55.8841V48.4586H55.4602C55.1174 48.4586 54.8408 48.5668 54.6304 48.7831C54.4199 48.9934 54.3147 49.2939 54.3147 49.6845V52.5777H53.4758ZM56.5843 52.5777V47.7195H57.4232V52.5777H56.5843ZM56.5843 46.9444V45.8628H57.4232V46.9444H56.5843ZM58.6796 52.5777V47.7195H59.5004V48.6659L59.3651 48.5848C59.4854 48.2784 59.6778 48.041 59.9424 47.8728C60.213 47.6985 60.5287 47.6114 60.8895 47.6114C61.2383 47.6114 61.5479 47.6895 61.8185 47.8457C62.0951 48.002 62.3116 48.2183 62.468 48.4947C62.6303 48.7711 62.7115 49.0836 62.7115 49.4321V52.5777H61.8636V49.7025C61.8636 49.4321 61.8155 49.2037 61.7193 49.0175C61.6231 48.8312 61.4848 48.687 61.3044 48.5848C61.13 48.4767 60.9286 48.4226 60.7001 48.4226C60.4716 48.4226 60.2671 48.4767 60.0867 48.5848C59.9123 48.687 59.774 48.8342 59.6718 49.0265C59.5696 49.2128 59.5184 49.4381 59.5184 49.7025V52.5777H58.6796ZM66.185 54.5607C65.8422 54.5607 65.5235 54.5066 65.2289 54.3984C64.9402 54.2903 64.6907 54.14 64.4802 53.9478C64.2757 53.7615 64.1194 53.5422 64.0112 53.2898L64.7959 52.9293C64.8801 53.1576 65.0394 53.3499 65.2739 53.5061C65.5145 53.6683 65.8152 53.7495 66.176 53.7495C66.4526 53.7495 66.7021 53.6954 66.9246 53.5872C67.1531 53.4851 67.3335 53.3288 67.4658 53.1185C67.5981 52.9142 67.6642 52.6649 67.6642 52.3704V51.2798L67.8176 51.4421C67.6492 51.7725 67.4057 52.0249 67.087 52.1992C66.7743 52.3734 66.4285 52.4606 66.0497 52.4606C65.5927 52.4606 65.1838 52.3554 64.8229 52.1451C64.4622 51.9288 64.1795 51.6373 63.9751 51.2708C63.7706 50.8982 63.6684 50.4866 63.6684 50.036C63.6684 49.5793 63.7706 49.1677 63.9751 48.8011C64.1795 48.4346 64.4591 48.1462 64.8139 47.9359C65.1747 47.7195 65.5836 47.6114 66.0407 47.6114C66.4195 47.6114 66.7622 47.6985 67.0689 47.8728C67.3816 48.041 67.6312 48.2754 67.8176 48.5758L67.6913 48.8011V47.7195H68.5121V52.3704C68.5121 52.791 68.4129 53.1666 68.2145 53.4971C68.016 53.8276 67.7394 54.086 67.3846 54.2722C67.0359 54.4645 66.636 54.5607 66.185 54.5607ZM66.1218 51.6494C66.4105 51.6494 66.669 51.5773 66.8976 51.433C67.1321 51.2888 67.3185 51.0965 67.4568 50.8562C67.5951 50.6098 67.6642 50.3364 67.6642 50.036C67.6642 49.7415 67.5951 49.4711 67.4568 49.2248C67.3185 48.9784 67.1321 48.7831 66.8976 48.6389C66.669 48.4947 66.4105 48.4226 66.1218 48.4226C65.8272 48.4226 65.5596 48.4947 65.3191 48.6389C65.0785 48.7831 64.8891 48.9784 64.7508 49.2248C64.6185 49.4651 64.5523 49.7355 64.5523 50.036C64.5523 50.3364 64.6185 50.6098 64.7508 50.8562C64.8891 51.0965 65.0755 51.2888 65.31 51.433C65.5506 51.5773 65.8212 51.6494 66.1218 51.6494ZM71.3448 50.5317V49.7656H75.3136V50.5317H71.3448ZM78.2319 52.5777V45.8628H79.1159V52.5777H78.2319ZM83.659 52.6859C83.1839 52.6859 82.7449 52.6018 82.342 52.4335C81.9452 52.2593 81.5964 52.0159 81.2957 51.7034C81.0011 51.391 80.7726 51.0244 80.6102 50.6038C80.4478 50.1832 80.3667 49.7235 80.3667 49.2248C80.3667 48.72 80.4478 48.2573 80.6102 47.8367C80.7726 47.4161 81.0011 47.0496 81.2957 46.7371C81.5904 46.4246 81.9392 46.1843 82.342 46.016C82.7449 45.8418 83.1839 45.7546 83.659 45.7546C84.122 45.7546 84.5369 45.8358 84.9037 45.998C85.2766 46.1602 85.5892 46.3706 85.8418 46.6289C86.1004 46.8873 86.2838 47.1637 86.392 47.4582L85.5802 47.8277C85.4239 47.4552 85.1803 47.1547 84.8496 46.9264C84.5189 46.692 84.122 46.5749 83.659 46.5749C83.1899 46.5749 82.772 46.686 82.4052 46.9083C82.0444 47.1307 81.7618 47.4401 81.5573 47.8367C81.3529 48.2333 81.2506 48.696 81.2506 49.2248C81.2506 49.7475 81.3529 50.2072 81.5573 50.6038C81.7618 51.0004 82.0444 51.3099 82.4052 51.5322C82.772 51.7545 83.1899 51.8657 83.659 51.8657C84.122 51.8657 84.5189 51.7515 84.8496 51.5232C85.1803 51.2888 85.4239 50.9854 85.5802 50.6128L86.392 50.9824C86.2838 51.2768 86.1004 51.5532 85.8418 51.8116C85.5892 52.07 85.2766 52.2803 84.9037 52.4425C84.5369 52.6048 84.122 52.6859 83.659 52.6859ZM88.7654 52.5777V51.8116H90.5694V46.6289H89.2976V45.8628H91.4714V51.8116H93.2754V52.5777H88.7654Z" fill="black"/>
<path d="M18.7886 96.1422V89.4272H23.1633V90.2385H19.6726V92.3656H22.9829V93.1768H19.6726V95.331H23.1633V96.1422H18.7886ZM24.1145 96.1422V91.284H24.9353V92.2304L24.8 92.1493C24.9202 91.8428 25.1127 91.6055 25.3773 91.4372C25.6479 91.263 25.9636 91.1758 26.3244 91.1758C26.6731 91.1758 26.9828 91.254 27.2534 91.4102C27.53 91.5664 27.7465 91.7827 27.9029 92.0591C28.0652 92.3356 28.1464 92.648 28.1464 92.9965V96.1422H27.2985V93.2669C27.2985 92.9965 27.2504 92.7682 27.1542 92.5819C27.058 92.3956 26.9197 92.2514 26.7393 92.1493C26.5649 92.0411 26.3634 91.987 26.1349 91.987C25.9064 91.987 25.702 92.0411 25.5216 92.1493C25.3472 92.2514 25.2089 92.3986 25.1067 92.5909C25.0044 92.7772 24.9533 93.0025 24.9533 93.2669V96.1422H24.1145ZM31.6198 98.1251C31.2771 98.1251 30.9583 98.071 30.6637 97.9629C30.3751 97.8547 30.1255 97.7045 29.915 97.5122C29.7106 97.3259 29.5542 97.1066 29.446 96.8542L30.2307 96.4937C30.3149 96.722 30.4743 96.9143 30.7088 97.0706C30.9493 97.2328 31.25 97.3139 31.6108 97.3139C31.8874 97.3139 32.137 97.2598 32.3595 97.1517C32.588 97.0495 32.7684 96.8933 32.9007 96.683C33.0329 96.4787 33.0991 96.2293 33.0991 95.9349V94.8443L33.2524 95.0065C33.0841 95.337 32.8405 95.5894 32.5218 95.7636C32.2091 95.9379 31.8634 96.025 31.4845 96.025C31.0275 96.025 30.6186 95.9199 30.2578 95.7095C29.897 95.4932 29.6144 95.2018 29.4099 94.8353C29.2055 94.4627 29.1032 94.0511 29.1032 93.6004C29.1032 93.1437 29.2055 92.7321 29.4099 92.3656C29.6144 91.9991 29.894 91.7106 30.2488 91.5003C30.6096 91.284 31.0185 91.1758 31.4755 91.1758C31.8543 91.1758 32.1971 91.263 32.5038 91.4372C32.8165 91.6055 33.066 91.8398 33.2524 92.1403L33.1262 92.3656V91.284H33.947V95.9349C33.947 96.3555 33.8478 96.7311 33.6493 97.0615C33.4509 97.392 33.1743 97.6504 32.8195 97.8367C32.4707 98.029 32.0708 98.1251 31.6198 98.1251ZM31.5567 95.2138C31.8453 95.2138 32.1039 95.1417 32.3324 94.9975C32.5669 94.8533 32.7533 94.661 32.8916 94.4206C33.0299 94.1743 33.0991 93.9009 33.0991 93.6004C33.0991 93.306 33.0299 93.0356 32.8916 92.7892C32.7533 92.5429 32.5669 92.3476 32.3324 92.2034C32.1039 92.0591 31.8453 91.987 31.5567 91.987C31.262 91.987 30.9944 92.0591 30.7539 92.2034C30.5134 92.3476 30.3239 92.5429 30.1856 92.7892C30.0533 93.0296 29.9872 93.3 29.9872 93.6004C29.9872 93.9009 30.0533 94.1743 30.1856 94.4206C30.3239 94.661 30.5104 94.8533 30.7449 94.9975C30.9854 95.1417 31.256 95.2138 31.5567 95.2138ZM35.2024 96.1422V91.284H36.0412V96.1422H35.2024ZM35.2024 90.5089V89.4272H36.0412V90.5089H35.2024ZM37.2978 96.1422V91.284H38.1185V92.2304L37.9832 92.1493C38.1035 91.8428 38.2959 91.6055 38.5605 91.4372C38.8311 91.263 39.1468 91.1758 39.5076 91.1758C39.8564 91.1758 40.166 91.254 40.4366 91.4102C40.7133 91.5664 40.9297 91.7827 41.0861 92.0591C41.2484 92.3356 41.3296 92.648 41.3296 92.9965V96.1422H40.4817V93.2669C40.4817 92.9965 40.4336 92.7682 40.3374 92.5819C40.2412 92.3956 40.1029 92.2514 39.9225 92.1493C39.7481 92.0411 39.5467 91.987 39.3182 91.987C39.0896 91.987 38.8852 92.0411 38.7048 92.1493C38.5304 92.2514 38.3921 92.3986 38.2899 92.5909C38.1876 92.7772 38.1365 93.0025 38.1365 93.2669V96.1422H37.2978ZM44.7219 96.2503C44.2528 96.2503 43.8349 96.1392 43.4681 95.9168C43.1013 95.6945 42.8127 95.3911 42.6022 95.0065C42.3917 94.6159 42.2865 94.1803 42.2865 93.6996C42.2865 93.2129 42.3887 92.7802 42.5932 92.4016C42.8036 92.0231 43.0863 91.7257 43.441 91.5093C43.8018 91.287 44.2047 91.1758 44.6497 91.1758C45.0105 91.1758 45.3292 91.2419 45.6059 91.3741C45.8885 91.5003 46.126 91.6746 46.3184 91.8969C46.5169 92.1132 46.6672 92.3626 46.7694 92.645C46.8777 92.9214 46.9318 93.2098 46.9318 93.5103C46.9318 93.5764 46.9258 93.6515 46.9137 93.7356C46.9077 93.8137 46.8987 93.8889 46.8867 93.961H42.8999V93.2399H46.3996L46.0027 93.5644C46.0569 93.2519 46.0268 92.9725 45.9125 92.7261C45.7983 92.4798 45.6299 92.2845 45.4074 92.1403C45.1849 91.996 44.9324 91.9239 44.6497 91.9239C44.3671 91.9239 44.1085 91.996 43.874 92.1403C43.6395 92.2845 43.4561 92.4918 43.3238 92.7622C43.1975 93.0266 43.1464 93.342 43.1704 93.7086C43.1464 94.0631 43.2005 94.3756 43.3328 94.646C43.4711 94.9104 43.6635 95.1177 43.9101 95.2679C44.1626 95.4121 44.4363 95.4842 44.7309 95.4842C45.0556 95.4842 45.3292 95.4091 45.5517 95.2589C45.7742 95.1087 45.9546 94.9164 46.0929 94.682L46.7965 95.0426C46.7003 95.2649 46.5499 95.4692 46.3455 95.6555C46.1471 95.8357 45.9095 95.9799 45.6329 96.0881C45.3623 96.1963 45.0586 96.2503 44.7219 96.2503ZM50.2173 96.2503C49.7483 96.2503 49.3304 96.1392 48.9635 95.9168C48.5967 95.6945 48.3081 95.3911 48.0976 95.0065C47.8872 94.6159 47.7819 94.1803 47.7819 93.6996C47.7819 93.2129 47.8842 92.7802 48.0886 92.4016C48.2991 92.0231 48.5817 91.7257 48.9365 91.5093C49.2973 91.287 49.7002 91.1758 50.1452 91.1758C50.506 91.1758 50.8247 91.2419 51.1013 91.3741C51.3839 91.5003 51.6214 91.6746 51.8139 91.8969C52.0123 92.1132 52.1626 92.3626 52.2649 92.645C52.3731 92.9214 52.4272 93.2098 52.4272 93.5103C52.4272 93.5764 52.4212 93.6515 52.4092 93.7356C52.4032 93.8137 52.3942 93.8889 52.3821 93.961H48.3953V93.2399H51.895L51.4982 93.5644C51.5523 93.2519 51.5222 92.9725 51.408 92.7261C51.2937 92.4798 51.1253 92.2845 50.9028 92.1403C50.6804 91.996 50.4278 91.9239 50.1452 91.9239C49.8625 91.9239 49.604 91.996 49.3694 92.1403C49.1349 92.2845 48.9515 92.4918 48.8192 92.7622C48.6929 93.0266 48.6418 93.342 48.6659 93.7086C48.6418 94.0631 48.6959 94.3756 48.8282 94.646C48.9665 94.9104 49.159 95.1177 49.4055 95.2679C49.6581 95.4121 49.9317 95.4842 50.2263 95.4842C50.5511 95.4842 50.8247 95.4091 51.0472 95.2589C51.2697 95.1087 51.4501 94.9164 51.5884 94.682L52.2919 95.0426C52.1957 95.2649 52.0454 95.4692 51.8409 95.6555C51.6425 95.8357 51.405 95.9799 51.1283 96.0881C50.8577 96.1963 50.5541 96.2503 50.2173 96.2503ZM53.4758 96.1422V91.284H54.2966V92.1763L54.2064 92.0501C54.3207 91.7737 54.4951 91.5694 54.7296 91.4372C54.9641 91.299 55.2497 91.2299 55.5865 91.2299H55.8841V92.0231H55.4602C55.1174 92.0231 54.8408 92.1312 54.6304 92.3476C54.4199 92.5579 54.3147 92.8583 54.3147 93.2489V96.1422H53.4758ZM56.5843 96.1422V91.284H57.4232V96.1422H56.5843ZM56.5843 90.5089V89.4272H57.4232V90.5089H56.5843ZM58.6796 96.1422V91.284H59.5004V92.2304L59.3651 92.1493C59.4854 91.8428 59.6778 91.6055 59.9424 91.4372C60.213 91.263 60.5287 91.1758 60.8895 91.1758C61.2383 91.1758 61.5479 91.254 61.8185 91.4102C62.0952 91.5664 62.3116 91.7827 62.468 92.0591C62.6303 92.3356 62.7115 92.648 62.7115 92.9965V96.1422H61.8636V93.2669C61.8636 92.9965 61.8155 92.7682 61.7193 92.5819C61.6231 92.3956 61.4848 92.2514 61.3044 92.1493C61.13 92.0411 60.9286 91.987 60.7001 91.987C60.4716 91.987 60.2671 92.0411 60.0867 92.1493C59.9123 92.2514 59.774 92.3986 59.6718 92.5909C59.5696 92.7772 59.5184 93.0025 59.5184 93.2669V96.1422H58.6796ZM66.185 98.1251C65.8422 98.1251 65.5235 98.071 65.2289 97.9629C64.9402 97.8547 64.6907 97.7045 64.4802 97.5122C64.2757 97.3259 64.1194 97.1066 64.0112 96.8542L64.7959 96.4937C64.8801 96.722 65.0394 96.9143 65.274 97.0706C65.5145 97.2328 65.8152 97.3139 66.176 97.3139C66.4526 97.3139 66.7021 97.2598 66.9246 97.1517C67.1531 97.0495 67.3335 96.8933 67.4658 96.683C67.5981 96.4787 67.6643 96.2293 67.6643 95.9349V94.8443L67.8176 95.0065C67.6492 95.337 67.4057 95.5894 67.087 95.7636C66.7743 95.9379 66.4285 96.025 66.0497 96.025C65.5927 96.025 65.1838 95.9199 64.823 95.7095C64.4622 95.4932 64.1795 95.2018 63.9751 94.8353C63.7706 94.4627 63.6684 94.0511 63.6684 93.6004C63.6684 93.1437 63.7706 92.7321 63.9751 92.3656C64.1795 91.9991 64.4591 91.7106 64.8139 91.5003C65.1747 91.284 65.5836 91.1758 66.0407 91.1758C66.4195 91.1758 66.7623 91.263 67.0689 91.4372C67.3816 91.6055 67.6312 91.8398 67.8176 92.1403L67.6913 92.3656V91.284H68.5121V95.9349C68.5121 96.3555 68.4129 96.7311 68.2145 97.0615C68.016 97.392 67.7394 97.6504 67.3846 97.8367C67.0359 98.029 66.636 98.1251 66.185 98.1251ZM66.1218 95.2138C66.4105 95.2138 66.6691 95.1417 66.8976 94.9975C67.1321 94.8533 67.3185 94.661 67.4568 94.4206C67.5951 94.1743 67.6643 93.9009 67.6643 93.6004C67.6643 93.306 67.5951 93.0356 67.4568 92.7892C67.3185 92.5429 67.1321 92.3476 66.8976 92.2034C66.6691 92.0591 66.4105 91.987 66.1218 91.987C65.8272 91.987 65.5596 92.0591 65.3191 92.2034C65.0785 92.3476 64.8891 92.5429 64.7508 92.7892C64.6185 93.0296 64.5524 93.3 64.5524 93.6004C64.5524 93.9009 64.6185 94.1743 64.7508 94.4206C64.8891 94.661 65.0755 94.8533 65.31 94.9975C65.5506 95.1417 65.8212 95.2138 66.1218 95.2138ZM71.3448 94.0962V93.33H75.3136V94.0962H71.3448ZM78.2319 96.1422V89.4272H79.1159V96.1422H78.2319ZM83.659 96.2503C83.1839 96.2503 82.7449 96.1662 82.3421 95.998C81.9452 95.8237 81.5964 95.5804 81.2957 95.2679C81.0011 94.9554 80.7726 94.5889 80.6102 94.1683C80.4479 93.7476 80.3667 93.288 80.3667 92.7892C80.3667 92.2845 80.4479 91.8218 80.6102 91.4012C80.7726 90.9806 81.0011 90.614 81.2957 90.3015C81.5904 89.9891 81.9392 89.7487 82.3421 89.5805C82.7449 89.4062 83.1839 89.3191 83.659 89.3191C84.122 89.3191 84.5369 89.4002 84.9037 89.5624C85.2766 89.7247 85.5893 89.935 85.8418 90.1934C86.1004 90.4518 86.2838 90.7282 86.392 91.0226L85.5802 91.3922C85.4239 91.0196 85.1804 90.7192 84.8496 90.4908C84.5189 90.2565 84.122 90.1393 83.659 90.1393C83.1899 90.1393 82.772 90.2505 82.4052 90.4728C82.0444 90.6951 81.7618 91.0046 81.5573 91.4012C81.3529 91.7978 81.2506 92.2604 81.2506 92.7892C81.2506 93.312 81.3529 93.7717 81.5573 94.1683C81.7618 94.5649 82.0444 94.8743 82.4052 95.0966C82.772 95.319 83.1899 95.4301 83.659 95.4301C84.122 95.4301 84.5189 95.316 84.8496 95.0876C85.1804 94.8533 85.4239 94.5498 85.5802 94.1773L86.392 94.5468C86.2838 94.8413 86.1004 95.1177 85.8418 95.3761C85.5893 95.6344 85.2766 95.8447 84.9037 96.007C84.5369 96.1692 84.122 96.2503 83.659 96.2503ZM88.8556 96.1422V95.5293L90.6686 93.5193C91.0294 93.1167 91.3151 92.7892 91.5255 92.5368C91.742 92.2845 91.8954 92.0621 91.9856 91.8699C92.0818 91.6716 92.1299 91.4643 92.1299 91.2479C92.1299 90.8814 92.0247 90.599 91.8142 90.4007C91.6097 90.2024 91.3361 90.1033 90.9934 90.1033C90.6506 90.1033 90.3529 90.2084 90.1004 90.4187C89.8538 90.623 89.6855 90.9145 89.5953 91.293L88.8015 91.0857C88.8797 90.7252 89.021 90.4127 89.2254 90.1483C89.4299 89.8839 89.6825 89.6796 89.9831 89.5354C90.2898 89.3912 90.6235 89.3191 90.9843 89.3191C91.3872 89.3191 91.742 89.4002 92.0487 89.5624C92.3554 89.7187 92.5929 89.938 92.7613 90.2204C92.9357 90.5028 93.0229 90.8303 93.0229 91.2029C93.0229 91.4553 92.9717 91.7016 92.8695 91.942C92.7733 92.1763 92.626 92.4227 92.4275 92.6811C92.2351 92.9394 91.9916 93.2369 91.6969 93.5734L90.0733 95.3761H93.1672V96.1422H88.8556Z" fill="black"/>
<path d="M18.7886 139.707V132.992H23.1633V133.803H19.6726V135.93H22.9829V136.741H19.6726V138.895H23.1633V139.707H18.7886ZM24.1145 139.707V134.848H24.9353V135.795L24.8 135.714C24.9202 135.407 25.1127 135.17 25.3773 135.002C25.6479 134.827 25.9636 134.74 26.3244 134.74C26.6731 134.74 26.9828 134.818 27.2534 134.975C27.53 135.131 27.7465 135.347 27.9029 135.624C28.0652 135.9 28.1464 136.212 28.1464 136.561V139.707H27.2985V136.831C27.2985 136.561 27.2504 136.333 27.1542 136.146C27.058 135.96 26.9197 135.816 26.7393 135.714C26.5649 135.606 26.3634 135.551 26.1349 135.551C25.9064 135.551 25.702 135.606 25.5216 135.714C25.3472 135.816 25.2089 135.963 25.1067 136.155C25.0044 136.342 24.9533 136.567 24.9533 136.831V139.707H24.1145ZM31.6198 141.69C31.2771 141.69 30.9583 141.635 30.6637 141.527C30.3751 141.419 30.1255 141.269 29.915 141.077C29.7106 140.89 29.5542 140.671 29.446 140.419L30.2307 140.058C30.3149 140.286 30.4743 140.479 30.7088 140.635C30.9493 140.797 31.25 140.878 31.6108 140.878C31.8874 140.878 32.137 140.824 32.3595 140.716C32.588 140.614 32.7684 140.458 32.9007 140.247C33.0329 140.043 33.0991 139.794 33.0991 139.499V138.409L33.2524 138.571C33.0841 138.901 32.8405 139.154 32.5218 139.328C32.2091 139.502 31.8633 139.589 31.4845 139.589C31.0275 139.589 30.6186 139.484 30.2578 139.274C29.897 139.058 29.6144 138.766 29.4099 138.4C29.2055 138.027 29.1032 137.616 29.1032 137.165C29.1032 136.708 29.2055 136.297 29.4099 135.93C29.6144 135.564 29.894 135.275 30.2488 135.065C30.6096 134.848 31.0185 134.74 31.4755 134.74C31.8543 134.74 32.1971 134.827 32.5038 135.002C32.8165 135.17 33.066 135.404 33.2524 135.705L33.1262 135.93V134.848H33.947V139.499C33.947 139.92 33.8478 140.296 33.6493 140.626C33.4509 140.956 33.1743 141.215 32.8195 141.401C32.4707 141.593 32.0708 141.69 31.6198 141.69ZM31.5567 138.778C31.8453 138.778 32.1039 138.706 32.3324 138.562C32.5669 138.418 32.7533 138.225 32.8916 137.985C33.0299 137.739 33.0991 137.465 33.0991 137.165C33.0991 136.87 33.0299 136.6 32.8916 136.354C32.7533 136.107 32.5669 135.912 32.3324 135.768C32.1039 135.624 31.8453 135.551 31.5567 135.551C31.262 135.551 30.9944 135.624 30.7539 135.768C30.5134 135.912 30.3239 136.107 30.1856 136.354C30.0533 136.594 29.9872 136.864 29.9872 137.165C29.9872 137.465 30.0533 137.739 30.1856 137.985C30.3239 138.225 30.5104 138.418 30.7449 138.562C30.9854 138.706 31.256 138.778 31.5567 138.778ZM35.2024 139.707V134.848H36.0412V139.707H35.2024ZM35.2024 134.073V132.992H36.0412V134.073H35.2024ZM37.2977 139.707V134.848H38.1185V135.795L37.9832 135.714C38.1035 135.407 38.2959 135.17 38.5605 135.002C38.8311 134.827 39.1468 134.74 39.5076 134.74C39.8563 134.74 40.166 134.818 40.4366 134.975C40.7132 135.131 40.9297 135.347 41.0861 135.624C41.2484 135.9 41.3296 136.212 41.3296 136.561V139.707H40.4817V136.831C40.4817 136.561 40.4336 136.333 40.3374 136.146C40.2412 135.96 40.1029 135.816 39.9225 135.714C39.7481 135.606 39.5467 135.551 39.3182 135.551C39.0896 135.551 38.8852 135.606 38.7048 135.714C38.5304 135.816 38.3921 135.963 38.2899 136.155C38.1876 136.342 38.1365 136.567 38.1365 136.831V139.707H37.2977ZM44.7219 139.815C44.2528 139.815 43.8349 139.704 43.4681 139.481C43.1013 139.259 42.8127 138.956 42.6022 138.571C42.3917 138.18 42.2865 137.745 42.2865 137.264C42.2865 136.777 42.3887 136.345 42.5932 135.966C42.8036 135.588 43.0863 135.29 43.441 135.074C43.8018 134.851 44.2047 134.74 44.6497 134.74C45.0105 134.74 45.3292 134.806 45.6058 134.939C45.8885 135.065 46.126 135.239 46.3184 135.461C46.5169 135.678 46.6672 135.927 46.7694 136.209C46.8777 136.486 46.9318 136.774 46.9318 137.075C46.9318 137.141 46.9258 137.216 46.9137 137.3C46.9077 137.378 46.8987 137.453 46.8867 137.525H42.8998V136.804H46.3996L46.0027 137.129C46.0568 136.816 46.0268 136.537 45.9125 136.291C45.7983 136.044 45.6299 135.849 45.4074 135.705C45.1849 135.561 44.9324 135.488 44.6497 135.488C44.3671 135.488 44.1085 135.561 43.874 135.705C43.6395 135.849 43.4561 136.056 43.3238 136.327C43.1975 136.591 43.1464 136.906 43.1704 137.273C43.1464 137.628 43.2005 137.94 43.3328 138.21C43.4711 138.475 43.6635 138.682 43.9101 138.832C44.1626 138.977 44.4363 139.049 44.7309 139.049C45.0556 139.049 45.3292 138.974 45.5517 138.823C45.7742 138.673 45.9546 138.481 46.0929 138.246L46.7965 138.607C46.7003 138.829 46.5499 139.034 46.3455 139.22C46.147 139.4 45.9095 139.544 45.6329 139.653C45.3623 139.761 45.0586 139.815 44.7219 139.815ZM50.2173 139.815C49.7483 139.815 49.3304 139.704 48.9635 139.481C48.5967 139.259 48.3081 138.956 48.0976 138.571C47.8872 138.18 47.7819 137.745 47.7819 137.264C47.7819 136.777 47.8842 136.345 48.0886 135.966C48.2991 135.588 48.5817 135.29 48.9365 135.074C49.2973 134.851 49.7002 134.74 50.1452 134.74C50.506 134.74 50.8247 134.806 51.1013 134.939C51.3839 135.065 51.6214 135.239 51.8139 135.461C52.0123 135.678 52.1626 135.927 52.2649 136.209C52.3731 136.486 52.4272 136.774 52.4272 137.075C52.4272 137.141 52.4212 137.216 52.4092 137.3C52.4032 137.378 52.3941 137.453 52.3821 137.525H48.3953V136.804H51.895L51.4982 137.129C51.5523 136.816 51.5222 136.537 51.408 136.291C51.2937 136.044 51.1253 135.849 50.9028 135.705C50.6803 135.561 50.4278 135.488 50.1452 135.488C49.8625 135.488 49.604 135.561 49.3694 135.705C49.1349 135.849 48.9515 136.056 48.8192 136.327C48.6929 136.591 48.6418 136.906 48.6659 137.273C48.6418 137.628 48.6959 137.94 48.8282 138.21C48.9665 138.475 49.159 138.682 49.4055 138.832C49.6581 138.977 49.9317 139.049 50.2263 139.049C50.5511 139.049 50.8247 138.974 51.0472 138.823C51.2697 138.673 51.4501 138.481 51.5884 138.246L52.2919 138.607C52.1957 138.829 52.0454 139.034 51.8409 139.22C51.6425 139.4 51.4049 139.544 51.1283 139.653C50.8577 139.761 50.5541 139.815 50.2173 139.815ZM53.4758 139.707V134.848H54.2966V135.741L54.2064 135.615C54.3207 135.338 54.4951 135.134 54.7296 135.002C54.9641 134.863 55.2497 134.794 55.5865 134.794H55.8841V135.588H55.4602C55.1174 135.588 54.8408 135.696 54.6304 135.912C54.4199 136.122 54.3147 136.423 54.3147 136.813V139.707H53.4758ZM56.5843 139.707V134.848H57.4232V139.707H56.5843ZM56.5843 134.073V132.992H57.4232V134.073H56.5843ZM58.6796 139.707V134.848H59.5004V135.795L59.3651 135.714C59.4854 135.407 59.6778 135.17 59.9424 135.002C60.213 134.827 60.5287 134.74 60.8895 134.74C61.2383 134.74 61.5479 134.818 61.8185 134.975C62.0952 135.131 62.3116 135.347 62.468 135.624C62.6303 135.9 62.7115 136.212 62.7115 136.561V139.707H61.8636V136.831C61.8636 136.561 61.8155 136.333 61.7193 136.146C61.6231 135.96 61.4848 135.816 61.3044 135.714C61.13 135.606 60.9286 135.551 60.7001 135.551C60.4716 135.551 60.2671 135.606 60.0867 135.714C59.9123 135.816 59.774 135.963 59.6718 136.155C59.5696 136.342 59.5184 136.567 59.5184 136.831V139.707H58.6796ZM66.185 141.69C65.8422 141.69 65.5235 141.635 65.2289 141.527C64.9402 141.419 64.6907 141.269 64.4802 141.077C64.2757 140.89 64.1194 140.671 64.0112 140.419L64.7959 140.058C64.8801 140.286 65.0394 140.479 65.274 140.635C65.5145 140.797 65.8152 140.878 66.176 140.878C66.4526 140.878 66.7021 140.824 66.9246 140.716C67.1531 140.614 67.3335 140.458 67.4658 140.247C67.5981 140.043 67.6643 139.794 67.6643 139.499V138.409L67.8176 138.571C67.6492 138.901 67.4057 139.154 67.087 139.328C66.7743 139.502 66.4285 139.589 66.0497 139.589C65.5927 139.589 65.1838 139.484 64.823 139.274C64.4622 139.058 64.1795 138.766 63.9751 138.4C63.7706 138.027 63.6684 137.616 63.6684 137.165C63.6684 136.708 63.7706 136.297 63.9751 135.93C64.1795 135.564 64.4591 135.275 64.8139 135.065C65.1747 134.848 65.5836 134.74 66.0407 134.74C66.4195 134.74 66.7623 134.827 67.0689 135.002C67.3816 135.17 67.6312 135.404 67.8176 135.705L67.6913 135.93V134.848H68.5121V139.499C68.5121 139.92 68.4129 140.296 68.2145 140.626C68.016 140.956 67.7394 141.215 67.3846 141.401C67.0359 141.593 66.636 141.69 66.185 141.69ZM66.1218 138.778C66.4105 138.778 66.669 138.706 66.8976 138.562C67.1321 138.418 67.3185 138.225 67.4568 137.985C67.5951 137.739 67.6643 137.465 67.6643 137.165C67.6643 136.87 67.5951 136.6 67.4568 136.354C67.3185 136.107 67.1321 135.912 66.8976 135.768C66.669 135.624 66.4105 135.551 66.1218 135.551C65.8272 135.551 65.5596 135.624 65.3191 135.768C65.0785 135.912 64.8891 136.107 64.7508 136.354C64.6185 136.594 64.5524 136.864 64.5524 137.165C64.5524 137.465 64.6185 137.739 64.7508 137.985C64.8891 138.225 65.0755 138.418 65.31 138.562C65.5506 138.706 65.8212 138.778 66.1218 138.778ZM71.3448 137.661V136.894H75.3136V137.661H71.3448ZM78.2319 139.707V132.992H79.1159V139.707H78.2319ZM83.659 139.815C83.1839 139.815 82.7449 139.731 82.342 139.562C81.9452 139.388 81.5964 139.145 81.2957 138.832C81.0011 138.52 80.7726 138.153 80.6102 137.733C80.4478 137.312 80.3667 136.852 80.3667 136.354C80.3667 135.849 80.4478 135.386 80.6102 134.966C80.7726 134.545 81.0011 134.178 81.2957 133.866C81.5904 133.554 81.9392 133.313 82.342 133.145C82.7449 132.971 83.1839 132.884 83.659 132.884C84.122 132.884 84.5369 132.965 84.9037 133.127C85.2766 133.289 85.5893 133.499 85.8418 133.758C86.1004 134.016 86.2838 134.293 86.392 134.587L85.5802 134.957C85.4239 134.584 85.1803 134.284 84.8496 134.055C84.5189 133.821 84.122 133.704 83.659 133.704C83.1899 133.704 82.772 133.815 82.4052 134.037C82.0444 134.26 81.7618 134.569 81.5573 134.966C81.3529 135.362 81.2506 135.825 81.2506 136.354C81.2506 136.876 81.3529 137.336 81.5573 137.733C81.7618 138.129 82.0444 138.439 82.4052 138.661C82.772 138.883 83.1899 138.995 83.659 138.995C84.122 138.995 84.5189 138.88 84.8496 138.652C85.1803 138.418 85.4239 138.114 85.5802 137.742L86.392 138.111C86.2838 138.406 86.1004 138.682 85.8418 138.941C85.5893 139.199 85.2766 139.409 84.9037 139.571C84.5369 139.734 84.122 139.815 83.659 139.815ZM90.9122 139.815C90.5754 139.815 90.2567 139.752 89.9561 139.626C89.6614 139.499 89.4058 139.322 89.1894 139.094C88.9729 138.859 88.8135 138.583 88.7113 138.265L89.46 137.958C89.5862 138.295 89.7757 138.556 90.0282 138.742C90.2868 138.928 90.5814 139.022 90.9122 139.022C91.1828 139.022 91.4203 138.968 91.6248 138.859C91.8292 138.751 91.9886 138.595 92.1028 138.391C92.2231 138.186 92.2832 137.94 92.2832 137.652C92.2832 137.357 92.2231 137.111 92.1028 136.913C91.9886 136.708 91.8262 136.552 91.6157 136.444C91.4113 136.336 91.1768 136.282 90.9122 136.282C90.822 136.282 90.7258 136.288 90.6235 136.3C90.5273 136.312 90.4401 136.33 90.362 136.354L90.1816 135.948L91.8954 133.758H89.045V132.992H92.9056V133.731L91.2459 135.84L91.1918 135.606C91.5827 135.618 91.9254 135.711 92.2201 135.885C92.5207 136.059 92.7553 136.297 92.9236 136.597C93.092 136.891 93.1762 137.237 93.1762 137.634C93.1762 138.042 93.077 138.412 92.8785 138.742C92.6861 139.073 92.4185 139.334 92.0758 139.526C91.739 139.719 91.3512 139.815 90.9122 139.815Z" fill="black"/>
<path d="M18.7886 183.271V176.556H23.1633V177.367H19.6726V179.495H22.9829V180.306H19.6726V182.46H23.1633V183.271H18.7886ZM24.1145 183.271V178.413H24.9353V179.359L24.8 179.278C24.9202 178.972 25.1127 178.734 25.3773 178.566C25.6479 178.392 25.9636 178.305 26.3244 178.305C26.6731 178.305 26.9828 178.383 27.2534 178.539C27.53 178.695 27.7465 178.912 27.9029 179.188C28.0652 179.464 28.1464 179.777 28.1464 180.125V183.271H27.2985V180.396C27.2985 180.125 27.2504 179.897 27.1542 179.711C27.058 179.525 26.9197 179.38 26.7393 179.278C26.5649 179.17 26.3634 179.116 26.1349 179.116C25.9064 179.116 25.702 179.17 25.5216 179.278C25.3472 179.38 25.2089 179.528 25.1067 179.72C25.0044 179.906 24.9533 180.131 24.9533 180.396V183.271H24.1145ZM31.6198 185.254C31.2771 185.254 30.9583 185.2 30.6637 185.092C30.3751 184.984 30.1255 184.833 29.915 184.641C29.7106 184.455 29.5542 184.236 29.446 183.983L30.2307 183.623C30.3149 183.851 30.4743 184.043 30.7088 184.199C30.9493 184.362 31.25 184.443 31.6108 184.443C31.8874 184.443 32.137 184.389 32.3595 184.281C32.588 184.178 32.7684 184.022 32.9007 183.812C33.0329 183.608 33.0991 183.358 33.0991 183.064V181.973L33.2524 182.135C33.0841 182.466 32.8405 182.718 32.5218 182.893C32.2091 183.067 31.8634 183.154 31.4845 183.154C31.0275 183.154 30.6186 183.049 30.2578 182.838C29.897 182.622 29.6144 182.331 29.4099 181.964C29.2055 181.592 29.1032 181.18 29.1032 180.729C29.1032 180.273 29.2055 179.861 29.4099 179.495C29.6144 179.128 29.894 178.84 30.2488 178.629C30.6096 178.413 31.0185 178.305 31.4755 178.305C31.8543 178.305 32.1971 178.392 32.5038 178.566C32.8165 178.734 33.066 178.969 33.2524 179.269L33.1262 179.495V178.413H33.947V183.064C33.947 183.484 33.8478 183.86 33.6493 184.19C33.4509 184.521 33.1743 184.779 32.8195 184.966C32.4707 185.158 32.0708 185.254 31.6198 185.254ZM31.5567 182.343C31.8453 182.343 32.1039 182.271 32.3324 182.126C32.5669 181.982 32.7533 181.79 32.8916 181.55C33.0299 181.303 33.0991 181.03 33.0991 180.729C33.0991 180.435 33.0299 180.164 32.8916 179.918C32.7533 179.672 32.5669 179.476 32.3324 179.332C32.1039 179.188 31.8453 179.116 31.5567 179.116C31.262 179.116 30.9944 179.188 30.7539 179.332C30.5134 179.476 30.3239 179.672 30.1856 179.918C30.0533 180.158 29.9872 180.429 29.9872 180.729C29.9872 181.03 30.0533 181.303 30.1856 181.55C30.3239 181.79 30.5104 181.982 30.7449 182.126C30.9854 182.271 31.256 182.343 31.5567 182.343ZM35.2024 183.271V178.413H36.0412V183.271H35.2024ZM35.2024 177.638V176.556H36.0412V177.638H35.2024ZM37.2978 183.271V178.413H38.1185V179.359L37.9832 179.278C38.1035 178.972 38.2959 178.734 38.5605 178.566C38.8311 178.392 39.1468 178.305 39.5076 178.305C39.8564 178.305 40.166 178.383 40.4366 178.539C40.7133 178.695 40.9297 178.912 41.0861 179.188C41.2484 179.464 41.3296 179.777 41.3296 180.125V183.271H40.4817V180.396C40.4817 180.125 40.4336 179.897 40.3374 179.711C40.2412 179.525 40.1029 179.38 39.9225 179.278C39.7481 179.17 39.5467 179.116 39.3182 179.116C39.0896 179.116 38.8852 179.17 38.7048 179.278C38.5304 179.38 38.3921 179.528 38.2899 179.72C38.1876 179.906 38.1365 180.131 38.1365 180.396V183.271H37.2978ZM44.7219 183.379C44.2528 183.379 43.8349 183.268 43.4681 183.046C43.1013 182.823 42.8127 182.52 42.6022 182.135C42.3917 181.745 42.2865 181.309 42.2865 180.828C42.2865 180.342 42.3887 179.909 42.5932 179.531C42.8036 179.152 43.0863 178.855 43.441 178.638C43.8018 178.416 44.2047 178.305 44.6497 178.305C45.0105 178.305 45.3292 178.371 45.6059 178.503C45.8885 178.629 46.126 178.803 46.3184 179.026C46.5169 179.242 46.6672 179.491 46.7694 179.774C46.8777 180.05 46.9318 180.339 46.9318 180.639C46.9318 180.705 46.9258 180.78 46.9137 180.865C46.9077 180.943 46.8987 181.018 46.8867 181.09H42.8999V180.369H46.3996L46.0027 180.693C46.0569 180.381 46.0268 180.101 45.9125 179.855C45.7983 179.609 45.6299 179.413 45.4074 179.269C45.1849 179.125 44.9324 179.053 44.6497 179.053C44.3671 179.053 44.1085 179.125 43.874 179.269C43.6395 179.413 43.4561 179.621 43.3238 179.891C43.1975 180.155 43.1464 180.471 43.1704 180.837C43.1464 181.192 43.2005 181.504 43.3328 181.775C43.4711 182.039 43.6635 182.247 43.9101 182.397C44.1626 182.541 44.4363 182.613 44.7309 182.613C45.0556 182.613 45.3292 182.538 45.5517 182.388C45.7742 182.238 45.9546 182.045 46.0929 181.811L46.7965 182.171C46.7003 182.394 46.5499 182.598 46.3455 182.784C46.1471 182.965 45.9095 183.109 45.6329 183.217C45.3623 183.325 45.0586 183.379 44.7219 183.379ZM50.2173 183.379C49.7483 183.379 49.3304 183.268 48.9635 183.046C48.5967 182.823 48.3081 182.52 48.0976 182.135C47.8872 181.745 47.7819 181.309 47.7819 180.828C47.7819 180.342 47.8842 179.909 48.0886 179.531C48.2991 179.152 48.5817 178.855 48.9365 178.638C49.2973 178.416 49.7002 178.305 50.1452 178.305C50.506 178.305 50.8247 178.371 51.1013 178.503C51.3839 178.629 51.6214 178.803 51.8139 179.026C52.0123 179.242 52.1626 179.491 52.2649 179.774C52.3731 180.05 52.4272 180.339 52.4272 180.639C52.4272 180.705 52.4212 180.78 52.4092 180.865C52.4032 180.943 52.3942 181.018 52.3821 181.09H48.3953V180.369H51.895L51.4982 180.693C51.5523 180.381 51.5222 180.101 51.408 179.855C51.2937 179.609 51.1253 179.413 50.9028 179.269C50.6804 179.125 50.4278 179.053 50.1452 179.053C49.8625 179.053 49.604 179.125 49.3694 179.269C49.1349 179.413 48.9515 179.621 48.8192 179.891C48.6929 180.155 48.6418 180.471 48.6659 180.837C48.6418 181.192 48.6959 181.504 48.8282 181.775C48.9665 182.039 49.159 182.247 49.4055 182.397C49.6581 182.541 49.9317 182.613 50.2263 182.613C50.5511 182.613 50.8247 182.538 51.0472 182.388C51.2697 182.238 51.4501 182.045 51.5884 181.811L52.2919 182.171C52.1957 182.394 52.0454 182.598 51.8409 182.784C51.6425 182.965 51.405 183.109 51.1283 183.217C50.8577 183.325 50.5541 183.379 50.2173 183.379ZM53.4758 183.271V178.413H54.2966V179.305L54.2064 179.179C54.3207 178.903 54.4951 178.698 54.7296 178.566C54.9641 178.428 55.2497 178.359 55.5865 178.359H55.8841V179.152H55.4602C55.1174 179.152 54.8408 179.26 54.6304 179.476C54.4199 179.687 54.3147 179.987 54.3147 180.378V183.271H53.4758ZM56.5843 183.271V178.413H57.4232V183.271H56.5843ZM56.5843 177.638V176.556H57.4232V177.638H56.5843ZM58.6796 183.271V178.413H59.5004V179.359L59.3651 179.278C59.4854 178.972 59.6778 178.734 59.9424 178.566C60.213 178.392 60.5287 178.305 60.8895 178.305C61.2383 178.305 61.5479 178.383 61.8185 178.539C62.0952 178.695 62.3116 178.912 62.468 179.188C62.6303 179.464 62.7115 179.777 62.7115 180.125V183.271H61.8636V180.396C61.8636 180.125 61.8155 179.897 61.7193 179.711C61.6231 179.525 61.4848 179.38 61.3044 179.278C61.13 179.17 60.9286 179.116 60.7001 179.116C60.4716 179.116 60.2671 179.17 60.0867 179.278C59.9123 179.38 59.774 179.528 59.6718 179.72C59.5696 179.906 59.5184 180.131 59.5184 180.396V183.271H58.6796ZM66.185 185.254C65.8422 185.254 65.5235 185.2 65.2289 185.092C64.9402 184.984 64.6907 184.833 64.4802 184.641C64.2757 184.455 64.1194 184.236 64.0112 183.983L64.7959 183.623C64.8801 183.851 65.0394 184.043 65.274 184.199C65.5145 184.362 65.8152 184.443 66.176 184.443C66.4526 184.443 66.7021 184.389 66.9246 184.281C67.1531 184.178 67.3335 184.022 67.4658 183.812C67.5981 183.608 67.6643 183.358 67.6643 183.064V181.973L67.8176 182.135C67.6492 182.466 67.4057 182.718 67.087 182.893C66.7743 183.067 66.4285 183.154 66.0497 183.154C65.5927 183.154 65.1838 183.049 64.823 182.838C64.4622 182.622 64.1795 182.331 63.9751 181.964C63.7706 181.592 63.6684 181.18 63.6684 180.729C63.6684 180.273 63.7706 179.861 63.9751 179.495C64.1795 179.128 64.4591 178.84 64.8139 178.629C65.1747 178.413 65.5836 178.305 66.0407 178.305C66.4195 178.305 66.7623 178.392 67.0689 178.566C67.3816 178.734 67.6312 178.969 67.8176 179.269L67.6913 179.495V178.413H68.5121V183.064C68.5121 183.484 68.4129 183.86 68.2145 184.19C68.016 184.521 67.7394 184.779 67.3846 184.966C67.0359 185.158 66.636 185.254 66.185 185.254ZM66.1218 182.343C66.4105 182.343 66.6691 182.271 66.8976 182.126C67.1321 181.982 67.3185 181.79 67.4568 181.55C67.5951 181.303 67.6643 181.03 67.6643 180.729C67.6643 180.435 67.5951 180.164 67.4568 179.918C67.3185 179.672 67.1321 179.476 66.8976 179.332C66.6691 179.188 66.4105 179.116 66.1218 179.116C65.8272 179.116 65.5596 179.188 65.3191 179.332C65.0785 179.476 64.8891 179.672 64.7508 179.918C64.6185 180.158 64.5524 180.429 64.5524 180.729C64.5524 181.03 64.6185 181.303 64.7508 181.55C64.8891 181.79 65.0755 181.982 65.31 182.126C65.5506 182.271 65.8212 182.343 66.1218 182.343ZM71.3448 181.225V180.459H75.3136V181.225H71.3448ZM78.2319 183.271V176.556H79.1159V183.271H78.2319ZM83.659 183.379C83.1839 183.379 82.7449 183.295 82.3421 183.127C81.9452 182.953 81.5964 182.709 81.2957 182.397C81.0011 182.084 80.7726 181.718 80.6102 181.297C80.4479 180.877 80.3667 180.417 80.3667 179.918C80.3667 179.413 80.4479 178.951 80.6102 178.53C80.7726 178.109 81.0011 177.743 81.2957 177.43C81.5904 177.118 81.9392 176.878 82.3421 176.709C82.7449 176.535 83.1839 176.448 83.659 176.448C84.122 176.448 84.5369 176.529 84.9037 176.691C85.2766 176.854 85.5893 177.064 85.8418 177.322C86.1004 177.581 86.2838 177.857 86.392 178.152L85.5802 178.521C85.4239 178.149 85.1804 177.848 84.8496 177.62C84.5189 177.385 84.122 177.268 83.659 177.268C83.1899 177.268 82.772 177.379 82.4052 177.602C82.0444 177.824 81.7618 178.133 81.5573 178.53C81.3529 178.927 81.2506 179.389 81.2506 179.918C81.2506 180.441 81.3529 180.901 81.5573 181.297C81.7618 181.694 82.0444 182.003 82.4052 182.226C82.772 182.448 83.1899 182.559 83.659 182.559C84.122 182.559 84.5189 182.445 84.8496 182.217C85.1804 181.982 85.4239 181.679 85.5802 181.306L86.392 181.676C86.2838 181.97 86.1004 182.247 85.8418 182.505C85.5893 182.763 85.2766 182.974 84.9037 183.136C84.5369 183.298 84.122 183.379 83.659 183.379ZM91.751 183.271V181.721H88.6482V180.991L91.715 176.556H92.5628V180.991H93.4107V181.721H92.5628V183.271H91.751ZM89.3156 181.306L89.1803 180.991H91.751V177.295L91.9946 177.367L89.3156 181.306Z" fill="black"/>
<path d="M18.7886 226.836V220.121H23.1633V220.932H19.6726V223.059H22.9829V223.87H19.6726V226.024H23.1633V226.836H18.7886ZM24.1145 226.836V221.977H24.9353V222.924L24.8 222.843C24.9202 222.536 25.1127 222.299 25.3773 222.131C25.6479 221.956 25.9636 221.869 26.3244 221.869C26.6731 221.869 26.9828 221.947 27.2534 222.104C27.53 222.26 27.7465 222.476 27.9029 222.753C28.0652 223.029 28.1464 223.341 28.1464 223.69V226.836H27.2985V223.96C27.2985 223.69 27.2504 223.462 27.1542 223.275C27.058 223.089 26.9197 222.945 26.7393 222.843C26.5649 222.734 26.3634 222.68 26.1349 222.68C25.9064 222.68 25.702 222.734 25.5216 222.843C25.3472 222.945 25.2089 223.092 25.1067 223.284C25.0044 223.471 24.9533 223.696 24.9533 223.96V226.836H24.1145ZM31.6198 228.818C31.2771 228.818 30.9583 228.764 30.6637 228.656C30.3751 228.548 30.1255 228.398 29.915 228.206C29.7106 228.019 29.5542 227.8 29.446 227.548L30.2307 227.187C30.3149 227.415 30.4743 227.608 30.7088 227.764C30.9493 227.926 31.25 228.007 31.6108 228.007C31.8874 228.007 32.137 227.953 32.3595 227.845C32.588 227.743 32.7684 227.587 32.9007 227.376C33.0329 227.172 33.0991 226.923 33.0991 226.628V225.538L33.2524 225.7C33.0841 226.03 32.8405 226.283 32.5218 226.457C32.2091 226.631 31.8634 226.718 31.4845 226.718C31.0275 226.718 30.6186 226.613 30.2578 226.403C29.897 226.187 29.6144 225.895 29.4099 225.529C29.2055 225.156 29.1032 224.744 29.1032 224.294C29.1032 223.837 29.2055 223.425 29.4099 223.059C29.6144 222.692 29.894 222.404 30.2488 222.194C30.6096 221.977 31.0185 221.869 31.4755 221.869C31.8543 221.869 32.1971 221.956 32.5038 222.131C32.8165 222.299 33.066 222.533 33.2524 222.834L33.1262 223.059V221.977H33.947V226.628C33.947 227.049 33.8478 227.424 33.6493 227.755C33.4509 228.085 33.1743 228.344 32.8195 228.53C32.4707 228.722 32.0708 228.818 31.6198 228.818ZM31.5567 225.907C31.8453 225.907 32.1039 225.835 32.3324 225.691C32.5669 225.547 32.7533 225.354 32.8916 225.114C33.0299 224.868 33.0991 224.594 33.0991 224.294C33.0991 223.999 33.0299 223.729 32.8916 223.483C32.7533 223.236 32.5669 223.041 32.3324 222.897C32.1039 222.753 31.8453 222.68 31.5567 222.68C31.262 222.68 30.9944 222.753 30.7539 222.897C30.5134 223.041 30.3239 223.236 30.1856 223.483C30.0533 223.723 29.9872 223.993 29.9872 224.294C29.9872 224.594 30.0533 224.868 30.1856 225.114C30.3239 225.354 30.5104 225.547 30.7449 225.691C30.9854 225.835 31.256 225.907 31.5567 225.907ZM35.2024 226.836V221.977H36.0412V226.836H35.2024ZM35.2024 221.202V220.121H36.0412V221.202H35.2024ZM37.2978 226.836V221.977H38.1185V222.924L37.9832 222.843C38.1035 222.536 38.2959 222.299 38.5605 222.131C38.8311 221.956 39.1468 221.869 39.5076 221.869C39.8564 221.869 40.166 221.947 40.4366 222.104C40.7133 222.26 40.9297 222.476 41.0861 222.753C41.2484 223.029 41.3296 223.341 41.3296 223.69V226.836H40.4817V223.96C40.4817 223.69 40.4336 223.462 40.3374 223.275C40.2412 223.089 40.1029 222.945 39.9225 222.843C39.7481 222.734 39.5467 222.68 39.3182 222.68C39.0896 222.68 38.8852 222.734 38.7048 222.843C38.5304 222.945 38.3921 223.092 38.2899 223.284C38.1876 223.471 38.1365 223.696 38.1365 223.96V226.836H37.2978ZM44.7219 226.944C44.2528 226.944 43.8349 226.833 43.4681 226.61C43.1013 226.388 42.8127 226.084 42.6022 225.7C42.3917 225.309 42.2865 224.874 42.2865 224.393C42.2865 223.906 42.3887 223.474 42.5932 223.095C42.8036 222.716 43.0863 222.419 43.441 222.203C43.8018 221.98 44.2047 221.869 44.6497 221.869C45.0105 221.869 45.3292 221.935 45.6059 222.068C45.8885 222.194 46.126 222.368 46.3184 222.59C46.5169 222.807 46.6672 223.056 46.7694 223.338C46.8777 223.615 46.9318 223.903 46.9318 224.204C46.9318 224.27 46.9258 224.345 46.9137 224.429C46.9077 224.507 46.8987 224.582 46.8867 224.654H42.8999V223.933H46.3996L46.0027 224.258C46.0569 223.945 46.0268 223.666 45.9125 223.419C45.7983 223.173 45.6299 222.978 45.4074 222.834C45.1849 222.689 44.9324 222.617 44.6497 222.617C44.3671 222.617 44.1085 222.689 43.874 222.834C43.6395 222.978 43.4561 223.185 43.3238 223.456C43.1975 223.72 43.1464 224.035 43.1704 224.402C43.1464 224.756 43.2005 225.069 43.3328 225.339C43.4711 225.604 43.6635 225.811 43.9101 225.961C44.1626 226.105 44.4363 226.178 44.7309 226.178C45.0556 226.178 45.3292 226.102 45.5517 225.952C45.7742 225.802 45.9546 225.61 46.0929 225.375L46.7965 225.736C46.7003 225.958 46.5499 226.163 46.3455 226.349C46.1471 226.529 45.9095 226.673 45.6329 226.781C45.3623 226.89 45.0586 226.944 44.7219 226.944ZM50.2173 226.944C49.7483 226.944 49.3304 226.833 48.9635 226.61C48.5967 226.388 48.3081 226.084 48.0976 225.7C47.8872 225.309 47.7819 224.874 47.7819 224.393C47.7819 223.906 47.8842 223.474 48.0886 223.095C48.2991 222.716 48.5817 222.419 48.9365 222.203C49.2973 221.98 49.7002 221.869 50.1452 221.869C50.506 221.869 50.8247 221.935 51.1013 222.068C51.3839 222.194 51.6214 222.368 51.8139 222.59C52.0123 222.807 52.1626 223.056 52.2649 223.338C52.3731 223.615 52.4272 223.903 52.4272 224.204C52.4272 224.27 52.4212 224.345 52.4092 224.429C52.4032 224.507 52.3942 224.582 52.3821 224.654H48.3953V223.933H51.895L51.4982 224.258C51.5523 223.945 51.5222 223.666 51.408 223.419C51.2937 223.173 51.1253 222.978 50.9028 222.834C50.6804 222.689 50.4278 222.617 50.1452 222.617C49.8625 222.617 49.604 222.689 49.3694 222.834C49.1349 222.978 48.9515 223.185 48.8192 223.456C48.6929 223.72 48.6418 224.035 48.6659 224.402C48.6418 224.756 48.6959 225.069 48.8282 225.339C48.9665 225.604 49.159 225.811 49.4055 225.961C49.6581 226.105 49.9317 226.178 50.2263 226.178C50.5511 226.178 50.8247 226.102 51.0472 225.952C51.2697 225.802 51.4501 225.61 51.5884 225.375L52.2919 225.736C52.1957 225.958 52.0454 226.163 51.8409 226.349C51.6425 226.529 51.405 226.673 51.1283 226.781C50.8577 226.89 50.5541 226.944 50.2173 226.944ZM53.4758 226.836V221.977H54.2966V222.87L54.2064 222.744C54.3207 222.467 54.4951 222.263 54.7296 222.131C54.9641 221.992 55.2497 221.923 55.5865 221.923H55.8841V222.716H55.4602C55.1174 222.716 54.8408 222.825 54.6304 223.041C54.4199 223.251 54.3147 223.552 54.3147 223.942V226.836H53.4758ZM56.5843 226.836V221.977H57.4232V226.836H56.5843ZM56.5843 221.202V220.121H57.4232V221.202H56.5843ZM58.6796 226.836V221.977H59.5004V222.924L59.3651 222.843C59.4854 222.536 59.6778 222.299 59.9424 222.131C60.213 221.956 60.5287 221.869 60.8895 221.869C61.2383 221.869 61.5479 221.947 61.8185 222.104C62.0952 222.26 62.3116 222.476 62.468 222.753C62.6303 223.029 62.7115 223.341 62.7115 223.69V226.836H61.8636V223.96C61.8636 223.69 61.8155 223.462 61.7193 223.275C61.6231 223.089 61.4848 222.945 61.3044 222.843C61.13 222.734 60.9286 222.68 60.7001 222.68C60.4716 222.68 60.2671 222.734 60.0867 222.843C59.9123 222.945 59.774 223.092 59.6718 223.284C59.5696 223.471 59.5184 223.696 59.5184 223.96V226.836H58.6796ZM66.185 228.818C65.8422 228.818 65.5235 228.764 65.2289 228.656C64.9402 228.548 64.6907 228.398 64.4802 228.206C64.2757 228.019 64.1194 227.8 64.0112 227.548L64.7959 227.187C64.8801 227.415 65.0394 227.608 65.274 227.764C65.5145 227.926 65.8152 228.007 66.176 228.007C66.4526 228.007 66.7021 227.953 66.9246 227.845C67.1531 227.743 67.3335 227.587 67.4658 227.376C67.5981 227.172 67.6643 226.923 67.6643 226.628V225.538L67.8176 225.7C67.6492 226.03 67.4057 226.283 67.087 226.457C66.7743 226.631 66.4285 226.718 66.0497 226.718C65.5927 226.718 65.1838 226.613 64.823 226.403C64.4622 226.187 64.1795 225.895 63.9751 225.529C63.7706 225.156 63.6684 224.744 63.6684 224.294C63.6684 223.837 63.7706 223.425 63.9751 223.059C64.1795 222.692 64.4591 222.404 64.8139 222.194C65.1747 221.977 65.5836 221.869 66.0407 221.869C66.4195 221.869 66.7623 221.956 67.0689 222.131C67.3816 222.299 67.6312 222.533 67.8176 222.834L67.6913 223.059V221.977H68.5121V226.628C68.5121 227.049 68.4129 227.424 68.2145 227.755C68.016 228.085 67.7394 228.344 67.3846 228.53C67.0359 228.722 66.636 228.818 66.185 228.818ZM66.1218 225.907C66.4105 225.907 66.6691 225.835 66.8976 225.691C67.1321 225.547 67.3185 225.354 67.4568 225.114C67.5951 224.868 67.6643 224.594 67.6643 224.294C67.6643 223.999 67.5951 223.729 67.4568 223.483C67.3185 223.236 67.1321 223.041 66.8976 222.897C66.6691 222.753 66.4105 222.68 66.1218 222.68C65.8272 222.68 65.5596 222.753 65.3191 222.897C65.0785 223.041 64.8891 223.236 64.7508 223.483C64.6185 223.723 64.5524 223.993 64.5524 224.294C64.5524 224.594 64.6185 224.868 64.7508 225.114C64.8891 225.354 65.0755 225.547 65.31 225.691C65.5506 225.835 65.8212 225.907 66.1218 225.907ZM71.3448 224.79V224.023H75.3136V224.79H71.3448ZM78.2319 226.836V220.121H79.1159V226.836H78.2319ZM83.659 226.944C83.1839 226.944 82.7449 226.86 82.3421 226.691C81.9452 226.517 81.5964 226.274 81.2957 225.961C81.0011 225.649 80.7726 225.282 80.6102 224.862C80.4479 224.441 80.3667 223.981 80.3667 223.483C80.3667 222.978 80.4479 222.515 80.6102 222.095C80.7726 221.674 81.0011 221.307 81.2957 220.995C81.5904 220.682 81.9392 220.442 82.3421 220.274C82.7449 220.1 83.1839 220.012 83.659 220.012C84.122 220.012 84.5369 220.094 84.9037 220.256C85.2766 220.418 85.5893 220.628 85.8418 220.887C86.1004 221.145 86.2838 221.422 86.392 221.716L85.5802 222.086C85.4239 221.713 85.1804 221.413 84.8496 221.184C84.5189 220.95 84.122 220.833 83.659 220.833C83.1899 220.833 82.772 220.944 82.4052 221.166C82.0444 221.388 81.7618 221.698 81.5573 222.095C81.3529 222.491 81.2506 222.954 81.2506 223.483C81.2506 224.005 81.3529 224.465 81.5573 224.862C81.7618 225.258 82.0444 225.568 82.4052 225.79C82.772 226.012 83.1899 226.124 83.659 226.124C84.122 226.124 84.5189 226.009 84.8496 225.781C85.1804 225.547 85.4239 225.243 85.5802 224.871L86.392 225.24C86.2838 225.535 86.1004 225.811 85.8418 226.069C85.5893 226.328 85.2766 226.538 84.9037 226.7C84.5369 226.863 84.122 226.944 83.659 226.944ZM90.9573 226.944C90.6205 226.944 90.3018 226.884 90.0012 226.763C89.7065 226.637 89.4509 226.46 89.2345 226.232C89.018 225.997 88.8586 225.724 88.7564 225.411L89.487 225.105C89.6073 225.423 89.7997 225.679 90.0643 225.871C90.3289 226.057 90.6265 226.151 90.9573 226.151C91.2098 226.151 91.4353 226.09 91.6338 225.97C91.8382 225.844 91.9976 225.673 92.1118 225.457C92.2321 225.234 92.2922 224.988 92.2922 224.717C92.2922 224.435 92.2321 224.186 92.1118 223.969C91.9976 223.753 91.8382 223.585 91.6338 223.465C91.4353 223.338 91.2129 223.275 90.9663 223.275C90.7017 223.275 90.4612 223.338 90.2447 223.465C90.0282 223.591 89.8719 223.75 89.7757 223.942L89.0541 223.789L89.5502 220.121H92.9327V220.887H89.8929L90.2267 220.544L89.8568 223.392L89.5592 223.212C89.7396 222.96 89.9591 222.78 90.2176 222.671C90.4762 222.557 90.7588 222.5 91.0655 222.5C91.4804 222.5 91.8473 222.599 92.166 222.798C92.4847 222.996 92.7342 223.26 92.9146 223.591C93.095 223.921 93.1852 224.297 93.1852 224.717C93.1852 225.138 93.089 225.517 92.8966 225.853C92.7042 226.19 92.4366 226.457 92.0938 226.655C91.7571 226.848 91.3782 226.944 90.9573 226.944Z" fill="black"/>
<path d="M18.7886 270.4V263.685H23.1633V264.496H19.6726V266.623H22.9829V267.435H19.6726V269.589H23.1633V270.4H18.7886ZM24.1145 270.4V265.542H24.9353V266.488L24.8 266.407C24.9202 266.101 25.1127 265.863 25.3773 265.695C25.6479 265.521 25.9636 265.434 26.3244 265.434C26.6731 265.434 26.9828 265.512 27.2534 265.668C27.53 265.824 27.7465 266.041 27.9029 266.317C28.0652 266.593 28.1464 266.906 28.1464 267.254V270.4H27.2985V267.525C27.2985 267.254 27.2504 267.026 27.1542 266.84C27.058 266.653 26.9197 266.509 26.7393 266.407C26.5649 266.299 26.3634 266.245 26.1349 266.245C25.9064 266.245 25.702 266.299 25.5216 266.407C25.3472 266.509 25.2089 266.656 25.1067 266.849C25.0044 267.035 24.9533 267.26 24.9533 267.525V270.4H24.1145ZM31.6198 272.383C31.2771 272.383 30.9583 272.329 30.6637 272.221C30.3751 272.113 30.1255 271.962 29.915 271.77C29.7106 271.584 29.5542 271.364 29.446 271.112L30.2307 270.752C30.3149 270.98 30.4743 271.172 30.7088 271.328C30.9493 271.491 31.25 271.572 31.6108 271.572C31.8874 271.572 32.137 271.518 32.3595 271.409C32.588 271.307 32.7684 271.151 32.9007 270.941C33.0329 270.737 33.0991 270.487 33.0991 270.193V269.102L33.2524 269.264C33.0841 269.595 32.8405 269.847 32.5218 270.021C32.2091 270.196 31.8633 270.283 31.4845 270.283C31.0275 270.283 30.6186 270.178 30.2578 269.967C29.897 269.751 29.6144 269.46 29.4099 269.093C29.2055 268.721 29.1032 268.309 29.1032 267.858C29.1032 267.402 29.2055 266.99 29.4099 266.623C29.6144 266.257 29.894 265.968 30.2488 265.758C30.6096 265.542 31.0185 265.434 31.4755 265.434C31.8543 265.434 32.1971 265.521 32.5038 265.695C32.8165 265.863 33.066 266.098 33.2524 266.398L33.1262 266.623V265.542H33.947V270.193C33.947 270.613 33.8478 270.989 33.6493 271.319C33.4509 271.65 33.1743 271.908 32.8195 272.095C32.4707 272.287 32.0708 272.383 31.6198 272.383ZM31.5567 269.472C31.8453 269.472 32.1039 269.4 32.3324 269.255C32.5669 269.111 32.7533 268.919 32.8916 268.678C33.0299 268.432 33.0991 268.159 33.0991 267.858C33.0991 267.564 33.0299 267.293 32.8916 267.047C32.7533 266.801 32.5669 266.605 32.3324 266.461C32.1039 266.317 31.8453 266.245 31.5567 266.245C31.262 266.245 30.9944 266.317 30.7539 266.461C30.5134 266.605 30.3239 266.801 30.1856 267.047C30.0533 267.287 29.9872 267.558 29.9872 267.858C29.9872 268.159 30.0533 268.432 30.1856 268.678C30.3239 268.919 30.5104 269.111 30.7449 269.255C30.9854 269.4 31.256 269.472 31.5567 269.472ZM35.2024 270.4V265.542H36.0412V270.4H35.2024ZM35.2024 264.767V263.685H36.0412V264.767H35.2024ZM37.2977 270.4V265.542H38.1185V266.488L37.9832 266.407C38.1035 266.101 38.2959 265.863 38.5605 265.695C38.8311 265.521 39.1468 265.434 39.5076 265.434C39.8563 265.434 40.166 265.512 40.4366 265.668C40.7132 265.824 40.9297 266.041 41.0861 266.317C41.2484 266.593 41.3296 266.906 41.3296 267.254V270.4H40.4817V267.525C40.4817 267.254 40.4336 267.026 40.3374 266.84C40.2412 266.653 40.1029 266.509 39.9225 266.407C39.7481 266.299 39.5467 266.245 39.3182 266.245C39.0896 266.245 38.8852 266.299 38.7048 266.407C38.5304 266.509 38.3921 266.656 38.2899 266.849C38.1876 267.035 38.1365 267.26 38.1365 267.525V270.4H37.2977ZM44.7219 270.508C44.2528 270.508 43.8349 270.397 43.4681 270.175C43.1013 269.952 42.8127 269.649 42.6022 269.264C42.3917 268.874 42.2865 268.438 42.2865 267.957C42.2865 267.471 42.3887 267.038 42.5932 266.659C42.8036 266.281 43.0863 265.983 43.441 265.767C43.8018 265.545 44.2047 265.434 44.6497 265.434C45.0105 265.434 45.3292 265.5 45.6058 265.632C45.8885 265.758 46.126 265.932 46.3184 266.155C46.5169 266.371 46.6672 266.62 46.7694 266.903C46.8777 267.179 46.9318 267.468 46.9318 267.768C46.9318 267.834 46.9258 267.909 46.9137 267.993C46.9077 268.072 46.8987 268.147 46.8867 268.219H42.8998V267.498H46.3996L46.0027 267.822C46.0568 267.51 46.0268 267.23 45.9125 266.984C45.7983 266.738 45.6299 266.542 45.4074 266.398C45.1849 266.254 44.9324 266.182 44.6497 266.182C44.3671 266.182 44.1085 266.254 43.874 266.398C43.6395 266.542 43.4561 266.75 43.3238 267.02C43.1975 267.284 43.1464 267.6 43.1704 267.966C43.1464 268.321 43.2005 268.633 43.3328 268.904C43.4711 269.168 43.6635 269.375 43.9101 269.526C44.1626 269.67 44.4363 269.742 44.7309 269.742C45.0556 269.742 45.3292 269.667 45.5517 269.517C45.7742 269.366 45.9546 269.174 46.0929 268.94L46.7965 269.3C46.7003 269.523 46.5499 269.727 46.3455 269.913C46.147 270.094 45.9095 270.238 45.6329 270.346C45.3623 270.454 45.0586 270.508 44.7219 270.508ZM50.2173 270.508C49.7483 270.508 49.3304 270.397 48.9635 270.175C48.5967 269.952 48.3081 269.649 48.0976 269.264C47.8872 268.874 47.7819 268.438 47.7819 267.957C47.7819 267.471 47.8842 267.038 48.0886 266.659C48.2991 266.281 48.5817 265.983 48.9365 265.767C49.2973 265.545 49.7002 265.434 50.1452 265.434C50.506 265.434 50.8247 265.5 51.1013 265.632C51.3839 265.758 51.6214 265.932 51.8139 266.155C52.0123 266.371 52.1626 266.62 52.2649 266.903C52.3731 267.179 52.4272 267.468 52.4272 267.768C52.4272 267.834 52.4212 267.909 52.4092 267.993C52.4032 268.072 52.3941 268.147 52.3821 268.219H48.3953V267.498H51.895L51.4982 267.822C51.5523 267.51 51.5222 267.23 51.408 266.984C51.2937 266.738 51.1253 266.542 50.9028 266.398C50.6803 266.254 50.4278 266.182 50.1452 266.182C49.8625 266.182 49.604 266.254 49.3694 266.398C49.1349 266.542 48.9515 266.75 48.8192 267.02C48.6929 267.284 48.6418 267.6 48.6659 267.966C48.6418 268.321 48.6959 268.633 48.8282 268.904C48.9665 269.168 49.159 269.375 49.4055 269.526C49.6581 269.67 49.9317 269.742 50.2263 269.742C50.5511 269.742 50.8247 269.667 51.0472 269.517C51.2697 269.366 51.4501 269.174 51.5884 268.94L52.2919 269.3C52.1957 269.523 52.0454 269.727 51.8409 269.913C51.6425 270.094 51.4049 270.238 51.1283 270.346C50.8577 270.454 50.5541 270.508 50.2173 270.508ZM53.4758 270.4V265.542H54.2966V266.434L54.2064 266.308C54.3207 266.032 54.4951 265.827 54.7296 265.695C54.9641 265.557 55.2497 265.488 55.5865 265.488H55.8841V266.281H55.4602C55.1174 266.281 54.8408 266.389 54.6304 266.605C54.4199 266.816 54.3147 267.116 54.3147 267.507V270.4H53.4758ZM56.5843 270.4V265.542H57.4232V270.4H56.5843ZM56.5843 264.767V263.685H57.4232V264.767H56.5843ZM58.6796 270.4V265.542H59.5004V266.488L59.3651 266.407C59.4854 266.101 59.6778 265.863 59.9424 265.695C60.213 265.521 60.5287 265.434 60.8895 265.434C61.2383 265.434 61.5479 265.512 61.8185 265.668C62.0952 265.824 62.3116 266.041 62.468 266.317C62.6303 266.593 62.7115 266.906 62.7115 267.254V270.4H61.8636V267.525C61.8636 267.254 61.8155 267.026 61.7193 266.84C61.6231 266.653 61.4848 266.509 61.3044 266.407C61.13 266.299 60.9286 266.245 60.7001 266.245C60.4716 266.245 60.2671 266.299 60.0867 266.407C59.9123 266.509 59.774 266.656 59.6718 266.849C59.5696 267.035 59.5184 267.26 59.5184 267.525V270.4H58.6796ZM66.185 272.383C65.8422 272.383 65.5235 272.329 65.2289 272.221C64.9402 272.113 64.6907 271.962 64.4802 271.77C64.2757 271.584 64.1194 271.364 64.0112 271.112L64.7959 270.752C64.8801 270.98 65.0394 271.172 65.274 271.328C65.5145 271.491 65.8152 271.572 66.176 271.572C66.4526 271.572 66.7021 271.518 66.9246 271.409C67.1531 271.307 67.3335 271.151 67.4658 270.941C67.5981 270.737 67.6643 270.487 67.6643 270.193V269.102L67.8176 269.264C67.6492 269.595 67.4057 269.847 67.087 270.021C66.7743 270.196 66.4285 270.283 66.0497 270.283C65.5927 270.283 65.1838 270.178 64.823 269.967C64.4622 269.751 64.1795 269.46 63.9751 269.093C63.7706 268.721 63.6684 268.309 63.6684 267.858C63.6684 267.402 63.7706 266.99 63.9751 266.623C64.1795 266.257 64.4591 265.968 64.8139 265.758C65.1747 265.542 65.5836 265.434 66.0407 265.434C66.4195 265.434 66.7623 265.521 67.0689 265.695C67.3816 265.863 67.6312 266.098 67.8176 266.398L67.6913 266.623V265.542H68.5121V270.193C68.5121 270.613 68.4129 270.989 68.2145 271.319C68.016 271.65 67.7394 271.908 67.3846 272.095C67.0359 272.287 66.636 272.383 66.185 272.383ZM66.1218 269.472C66.4105 269.472 66.669 269.4 66.8976 269.255C67.1321 269.111 67.3185 268.919 67.4568 268.678C67.5951 268.432 67.6643 268.159 67.6643 267.858C67.6643 267.564 67.5951 267.293 67.4568 267.047C67.3185 266.801 67.1321 266.605 66.8976 266.461C66.669 266.317 66.4105 266.245 66.1218 266.245C65.8272 266.245 65.5596 266.317 65.3191 266.461C65.0785 266.605 64.8891 266.801 64.7508 267.047C64.6185 267.287 64.5524 267.558 64.5524 267.858C64.5524 268.159 64.6185 268.432 64.7508 268.678C64.8891 268.919 65.0755 269.111 65.31 269.255C65.5506 269.4 65.8212 269.472 66.1218 269.472ZM71.3448 268.354V267.588H75.3136V268.354H71.3448ZM78.2319 270.4V263.685H79.1159V270.4H78.2319ZM83.659 270.508C83.1839 270.508 82.7449 270.424 82.342 270.256C81.9452 270.082 81.5964 269.838 81.2957 269.526C81.0011 269.213 80.7726 268.847 80.6102 268.426C80.4478 268.005 80.3667 267.546 80.3667 267.047C80.3667 266.542 80.4478 266.08 80.6102 265.659C80.7726 265.238 81.0011 264.872 81.2957 264.559C81.5904 264.247 81.9392 264.007 82.342 263.838C82.7449 263.664 83.1839 263.577 83.659 263.577C84.122 263.577 84.5369 263.658 84.9037 263.82C85.2766 263.983 85.5893 264.193 85.8418 264.451C86.1004 264.71 86.2838 264.986 86.392 265.28L85.5802 265.65C85.4239 265.277 85.1803 264.977 84.8496 264.749C84.5189 264.514 84.122 264.397 83.659 264.397C83.1899 264.397 82.772 264.508 82.4052 264.731C82.0444 264.953 81.7618 265.262 81.5573 265.659C81.3529 266.056 81.2506 266.518 81.2506 267.047C81.2506 267.57 81.3529 268.03 81.5573 268.426C81.7618 268.823 82.0444 269.132 82.4052 269.354C82.772 269.577 83.1899 269.688 83.659 269.688C84.122 269.688 84.5189 269.574 84.8496 269.345C85.1803 269.111 85.4239 268.808 85.5802 268.435L86.392 268.805C86.2838 269.099 86.1004 269.376 85.8418 269.634C85.5893 269.892 85.2766 270.103 84.9037 270.265C84.5369 270.427 84.122 270.508 83.659 270.508ZM91.0294 270.508C90.6085 270.508 90.2327 270.412 89.9019 270.22C89.5772 270.027 89.3217 269.766 89.1352 269.436C88.9488 269.099 88.8556 268.718 88.8556 268.291C88.8556 268.057 88.8797 267.828 88.9278 267.606C88.9819 267.378 89.0661 267.146 89.1803 266.912C89.3006 266.671 89.4539 266.425 89.6404 266.173L91.4895 263.685H92.5538L90.2988 266.696L90.1274 266.678C90.2176 266.557 90.3169 266.464 90.4251 266.398C90.5333 266.332 90.6506 266.284 90.7769 266.254C90.9032 266.224 91.0355 266.209 91.1738 266.209C91.5586 266.209 91.9044 266.302 92.2111 266.488C92.5238 266.668 92.7673 266.918 92.9417 267.236C93.1221 267.555 93.2123 267.921 93.2123 268.336C93.2123 268.751 93.1161 269.123 92.9236 269.454C92.7372 269.778 92.4787 270.036 92.1479 270.229C91.8232 270.415 91.4504 270.508 91.0294 270.508ZM91.0385 269.715C91.285 269.715 91.5045 269.658 91.6969 269.544C91.8893 269.424 92.0397 269.258 92.1479 269.048C92.2622 268.838 92.3193 268.603 92.3193 268.345C92.3193 268.081 92.2622 267.846 92.1479 267.642C92.0397 267.438 91.8893 267.275 91.6969 267.155C91.5045 267.035 91.285 266.975 91.0385 266.975C90.7979 266.975 90.5784 267.035 90.38 267.155C90.1816 267.275 90.0252 267.438 89.911 267.642C89.8027 267.84 89.7486 268.075 89.7486 268.345C89.7486 268.603 89.8057 268.838 89.92 269.048C90.0342 269.258 90.1876 269.424 90.38 269.544C90.5784 269.658 90.7979 269.715 91.0385 269.715Z" fill="black"/>
<path d="M108.616 27.04V288.427" stroke="#D8D8D8" stroke-width="2"/>
<path d="M152.964 27.04V288.427" stroke="#D8D8D8" stroke-width="2"/>
<path d="M197.312 27.04V288.427" stroke="#D8D8D8" stroke-width="2"/>
<path d="M241.661 27.04V288.427" stroke="#D8D8D8" stroke-width="2"/>
<path d="M286.009 27.04V288.427" stroke="#D8D8D8" stroke-width="2"/>
<path d="M330.358 27.04V288.427" stroke="#D8D8D8" stroke-width="2"/>
<path d="M374.706 27.04V288.427" stroke="#D8D8D8" stroke-width="2"/>
<path d="M419.054 27.04V288.427" stroke="#D8D8D8" stroke-width="2"/>
<path d="M105.678 309.19C105.251 309.19 104.863 309.109 104.514 308.947C104.166 308.785 103.871 308.568 103.63 308.298C103.39 308.022 103.218 307.718 103.116 307.388L103.766 307.144C103.922 307.601 104.166 307.949 104.496 308.19C104.827 308.424 105.221 308.541 105.678 308.541C105.967 308.541 106.219 308.496 106.436 308.406C106.658 308.31 106.829 308.178 106.95 308.01C107.07 307.841 107.13 307.646 107.13 307.424C107.13 307.093 107.04 306.838 106.86 306.658C106.679 306.477 106.421 306.339 106.084 306.243L104.875 305.882C104.4 305.744 104.033 305.513 103.775 305.188C103.522 304.864 103.396 304.494 103.396 304.08C103.396 303.725 103.483 303.413 103.657 303.142C103.832 302.866 104.069 302.65 104.37 302.493C104.677 302.337 105.023 302.259 105.407 302.259C105.81 302.259 106.171 302.334 106.49 302.484C106.814 302.629 107.088 302.821 107.311 303.061C107.533 303.302 107.692 303.569 107.789 303.863L107.157 304.116C107.013 303.719 106.787 303.419 106.481 303.214C106.18 303.01 105.825 302.908 105.416 302.908C105.158 302.908 104.929 302.953 104.731 303.043C104.538 303.133 104.388 303.262 104.28 303.431C104.172 303.599 104.117 303.797 104.117 304.026C104.117 304.302 104.205 304.551 104.379 304.774C104.553 304.99 104.821 305.152 105.182 305.26L106.246 305.576C106.775 305.732 107.175 305.957 107.446 306.252C107.716 306.546 107.852 306.916 107.852 307.361C107.852 307.721 107.759 308.04 107.572 308.316C107.392 308.586 107.136 308.8 106.805 308.956C106.481 309.112 106.105 309.19 105.678 309.19ZM105.29 309.983V301.466H105.921V309.983H105.29ZM111.167 309.19C110.409 309.19 109.826 308.89 109.417 308.289C109.008 307.688 108.803 306.832 108.803 305.72C108.803 304.608 109.005 303.755 109.408 303.16C109.817 302.559 110.4 302.259 111.158 302.259C111.915 302.259 112.496 302.559 112.898 303.16C113.307 303.755 113.512 304.608 113.512 305.72C113.512 306.832 113.307 307.688 112.898 308.289C112.496 308.89 111.918 309.19 111.167 309.19ZM111.167 308.514C111.69 308.514 112.093 308.274 112.375 307.793C112.658 307.306 112.799 306.615 112.799 305.72C112.799 304.825 112.658 304.137 112.375 303.656C112.093 303.175 111.687 302.935 111.158 302.935C110.634 302.935 110.232 303.175 109.949 303.656C109.666 304.137 109.525 304.825 109.525 305.72C109.525 306.615 109.666 307.306 109.949 307.793C110.232 308.274 110.637 308.514 111.167 308.514Z" fill="black"/>
<path d="M144.371 309.19C143.944 309.19 143.556 309.109 143.208 308.947C142.859 308.785 142.564 308.568 142.324 308.298C142.083 308.022 141.912 307.718 141.809 307.388L142.459 307.144C142.615 307.601 142.859 307.949 143.19 308.19C143.52 308.424 143.914 308.541 144.371 308.541C144.66 308.541 144.912 308.496 145.129 308.406C145.351 308.31 145.523 308.178 145.643 308.01C145.763 307.841 145.823 307.646 145.823 307.424C145.823 307.093 145.733 306.838 145.553 306.658C145.372 306.477 145.114 306.339 144.777 306.243L143.568 305.882C143.093 305.744 142.726 305.513 142.468 305.188C142.215 304.864 142.089 304.494 142.089 304.08C142.089 303.725 142.176 303.413 142.351 303.142C142.525 302.866 142.763 302.65 143.063 302.493C143.37 302.337 143.716 302.259 144.101 302.259C144.503 302.259 144.864 302.334 145.183 302.484C145.508 302.629 145.781 302.821 146.004 303.061C146.226 303.302 146.386 303.569 146.482 303.863L145.85 304.116C145.706 303.719 145.481 303.419 145.174 303.214C144.873 303.01 144.518 302.908 144.11 302.908C143.851 302.908 143.622 302.953 143.424 303.043C143.232 303.133 143.081 303.262 142.973 303.431C142.865 303.599 142.811 303.797 142.811 304.026C142.811 304.302 142.898 304.551 143.072 304.774C143.247 304.99 143.514 305.152 143.875 305.26L144.939 305.576C145.469 305.732 145.868 305.957 146.139 306.252C146.41 306.546 146.545 306.916 146.545 307.361C146.545 307.721 146.452 308.04 146.265 308.316C146.085 308.586 145.829 308.8 145.499 308.956C145.174 309.112 144.798 309.19 144.371 309.19ZM143.983 309.983V301.466H144.615V309.983H143.983ZM149.797 309.19C149.466 309.19 149.153 309.13 148.859 309.01C148.57 308.89 148.317 308.719 148.101 308.496C147.89 308.274 147.731 308.01 147.623 307.703L148.182 307.433C148.308 307.763 148.516 308.034 148.804 308.244C149.099 308.454 149.43 308.559 149.797 308.559C150.073 308.559 150.32 308.49 150.536 308.352C150.759 308.214 150.933 308.028 151.059 307.793C151.192 307.553 151.258 307.285 151.258 306.991C151.258 306.685 151.192 306.414 151.059 306.18C150.933 305.945 150.759 305.762 150.536 305.63C150.32 305.492 150.076 305.423 149.806 305.423C149.523 305.423 149.261 305.492 149.021 305.63C148.786 305.762 148.618 305.924 148.516 306.117L147.939 306.009L148.426 302.367H151.718V302.998H148.687L148.967 302.755L148.588 305.621L148.317 305.495C148.51 305.236 148.741 305.053 149.012 304.945C149.289 304.831 149.568 304.774 149.851 304.774C150.266 304.774 150.633 304.876 150.951 305.08C151.27 305.278 151.519 305.546 151.7 305.882C151.886 306.213 151.979 306.582 151.979 306.991C151.979 307.406 151.883 307.781 151.691 308.118C151.504 308.448 151.246 308.71 150.915 308.902C150.584 309.094 150.212 309.19 149.797 309.19ZM155.268 309.19C154.51 309.19 153.927 308.89 153.518 308.289C153.109 307.688 152.905 306.832 152.905 305.72C152.905 304.608 153.106 303.755 153.509 303.16C153.918 302.559 154.501 302.259 155.259 302.259C156.017 302.259 156.597 302.559 157 303.16C157.409 303.755 157.613 304.608 157.613 305.72C157.613 306.832 157.409 307.688 157 308.289C156.597 308.89 156.02 309.19 155.268 309.19ZM155.268 308.514C155.791 308.514 156.194 308.274 156.477 307.793C156.759 307.306 156.901 306.615 156.901 305.72C156.901 304.825 156.759 304.137 156.477 303.656C156.194 303.175 155.788 302.935 155.259 302.935C154.736 302.935 154.333 303.175 154.05 303.656C153.768 304.137 153.626 304.825 153.626 305.72C153.626 306.615 153.768 307.306 154.05 307.793C154.333 308.274 154.739 308.514 155.268 308.514ZM158.755 309.082V302.367H159.477V306.288L159.315 306.207L162.697 302.367H163.599L160.884 305.45L160.92 304.936L163.761 309.082H162.896L160.604 305.774L159.477 307.054V309.082H158.755Z" fill="black"/>
<path d="M186.203 309.19C185.776 309.19 185.388 309.109 185.04 308.947C184.691 308.785 184.396 308.568 184.156 308.298C183.915 308.022 183.744 307.718 183.642 307.388L184.291 307.144C184.447 307.601 184.691 307.949 185.022 308.19C185.352 308.424 185.746 308.541 186.203 308.541C186.492 308.541 186.744 308.496 186.961 308.406C187.183 308.31 187.355 308.178 187.475 308.01C187.595 307.841 187.655 307.646 187.655 307.424C187.655 307.093 187.565 306.838 187.385 306.658C187.204 306.477 186.946 306.339 186.609 306.243L185.4 305.882C184.925 305.744 184.559 305.513 184.3 305.188C184.047 304.864 183.921 304.494 183.921 304.08C183.921 303.725 184.008 303.413 184.183 303.142C184.357 302.866 184.595 302.65 184.895 302.493C185.202 302.337 185.548 302.259 185.933 302.259C186.336 302.259 186.696 302.334 187.015 302.484C187.34 302.629 187.613 302.821 187.836 303.061C188.058 303.302 188.218 303.569 188.314 303.863L187.683 304.116C187.538 303.719 187.313 303.419 187.006 303.214C186.705 303.01 186.351 302.908 185.942 302.908C185.683 302.908 185.455 302.953 185.256 303.043C185.064 303.133 184.913 303.262 184.805 303.431C184.697 303.599 184.643 303.797 184.643 304.026C184.643 304.302 184.73 304.551 184.904 304.774C185.079 304.99 185.346 305.152 185.707 305.26L186.771 305.576C187.301 305.732 187.701 305.957 187.971 306.252C188.242 306.546 188.377 306.916 188.377 307.361C188.377 307.721 188.284 308.04 188.097 308.316C187.917 308.586 187.661 308.8 187.331 308.956C187.006 309.112 186.63 309.19 186.203 309.19ZM185.815 309.983V301.466H186.447V309.983H185.815ZM189.491 309.082V308.451H191.313V302.998H190.041V302.367H192.052V308.451H193.874V309.082H189.491ZM197.1 309.19C196.342 309.19 195.759 308.89 195.35 308.289C194.941 307.688 194.737 306.832 194.737 305.72C194.737 304.608 194.938 303.755 195.341 303.16C195.75 302.559 196.333 302.259 197.091 302.259C197.849 302.259 198.429 302.559 198.832 303.16C199.241 303.755 199.445 304.608 199.445 305.72C199.445 306.832 199.241 307.688 198.832 308.289C198.429 308.89 197.852 309.19 197.1 309.19ZM197.1 308.514C197.623 308.514 198.026 308.274 198.309 307.793C198.591 307.306 198.733 306.615 198.733 305.72C198.733 304.825 198.591 304.137 198.309 303.656C198.026 303.175 197.62 302.935 197.091 302.935C196.568 302.935 196.165 303.175 195.882 303.656C195.6 304.137 195.458 304.825 195.458 305.72C195.458 306.615 195.6 307.306 195.882 307.793C196.165 308.274 196.571 308.514 197.1 308.514ZM202.509 309.19C201.751 309.19 201.168 308.89 200.759 308.289C200.35 307.688 200.146 306.832 200.146 305.72C200.146 304.608 200.347 303.755 200.75 303.16C201.159 302.559 201.742 302.259 202.5 302.259C203.257 302.259 203.838 302.559 204.241 303.16C204.65 303.755 204.854 304.608 204.854 305.72C204.854 306.832 204.65 307.688 204.241 308.289C203.838 308.89 203.26 309.19 202.509 309.19ZM202.509 308.514C203.032 308.514 203.435 308.274 203.717 307.793C204 307.306 204.141 306.615 204.141 305.72C204.141 304.825 204 304.137 203.717 303.656C203.435 303.175 203.029 302.935 202.5 302.935C201.977 302.935 201.574 303.175 201.291 303.656C201.008 304.137 200.867 304.825 200.867 305.72C200.867 306.615 201.008 307.306 201.291 307.793C201.574 308.274 201.98 308.514 202.509 308.514ZM205.996 309.082V302.367H206.717V306.288L206.555 306.207L209.937 302.367H210.839L208.124 305.45L208.161 304.936L211.002 309.082H210.136L207.845 305.774L206.717 307.054V309.082H205.996Z" fill="black"/>
<path d="M230.552 309.19C230.125 309.19 229.737 309.109 229.388 308.947C229.039 308.785 228.745 308.568 228.504 308.298C228.263 308.022 228.092 307.718 227.99 307.388L228.639 307.144C228.796 307.601 229.039 307.949 229.37 308.19C229.701 308.424 230.095 308.541 230.552 308.541C230.84 308.541 231.093 308.496 231.309 308.406C231.532 308.31 231.703 308.178 231.823 308.01C231.944 307.841 232.004 307.646 232.004 307.424C232.004 307.093 231.914 306.838 231.733 306.658C231.553 306.477 231.294 306.339 230.957 306.243L229.749 305.882C229.274 305.744 228.907 305.513 228.648 305.188C228.396 304.864 228.269 304.494 228.269 304.08C228.269 303.725 228.357 303.413 228.531 303.142C228.705 302.866 228.943 302.65 229.244 302.493C229.55 302.337 229.896 302.259 230.281 302.259C230.684 302.259 231.045 302.334 231.363 302.484C231.688 302.629 231.962 302.821 232.184 303.061C232.407 303.302 232.566 303.569 232.662 303.863L232.031 304.116C231.887 303.719 231.661 303.419 231.354 303.214C231.054 303.01 230.699 302.908 230.29 302.908C230.031 302.908 229.803 302.953 229.604 303.043C229.412 303.133 229.262 303.262 229.153 303.431C229.045 303.599 228.991 303.797 228.991 304.026C228.991 304.302 229.078 304.551 229.253 304.774C229.427 304.99 229.695 305.152 230.055 305.26L231.12 305.576C231.649 305.732 232.049 305.957 232.319 306.252C232.59 306.546 232.725 306.916 232.725 307.361C232.725 307.721 232.632 308.04 232.446 308.316C232.265 308.586 232.01 308.8 231.679 308.956C231.354 309.112 230.978 309.19 230.552 309.19ZM230.164 309.983V301.466H230.795V309.983H230.164ZM233.839 309.082V308.451H235.661V302.998H234.389V302.367H236.401V308.451H238.223V309.082H233.839ZM241.385 309.19C241.055 309.19 240.742 309.13 240.447 309.01C240.159 308.89 239.906 308.719 239.69 308.496C239.479 308.274 239.32 308.01 239.211 307.703L239.771 307.433C239.897 307.763 240.104 308.034 240.393 308.244C240.688 308.454 241.019 308.559 241.385 308.559C241.662 308.559 241.908 308.49 242.125 308.352C242.347 308.214 242.522 308.028 242.648 307.793C242.78 307.553 242.847 307.285 242.847 306.991C242.847 306.685 242.78 306.414 242.648 306.18C242.522 305.945 242.347 305.762 242.125 305.63C241.908 305.492 241.665 305.423 241.394 305.423C241.112 305.423 240.85 305.492 240.61 305.63C240.375 305.762 240.207 305.924 240.104 306.117L239.527 306.009L240.014 302.367H243.307V302.998H240.276L240.555 302.755L240.177 305.621L239.906 305.495C240.098 305.236 240.33 305.053 240.601 304.945C240.877 304.831 241.157 304.774 241.439 304.774C241.854 304.774 242.221 304.876 242.54 305.08C242.859 305.278 243.108 305.546 243.289 305.882C243.475 306.213 243.568 306.582 243.568 306.991C243.568 307.406 243.472 307.781 243.28 308.118C243.093 308.448 242.835 308.71 242.504 308.902C242.173 309.094 241.8 309.19 241.385 309.19ZM246.857 309.19C246.099 309.19 245.516 308.89 245.107 308.289C244.698 307.688 244.494 306.832 244.494 305.72C244.494 304.608 244.695 303.755 245.098 303.16C245.507 302.559 246.09 302.259 246.848 302.259C247.606 302.259 248.186 302.559 248.589 303.16C248.998 303.755 249.202 304.608 249.202 305.72C249.202 306.832 248.998 307.688 248.589 308.289C248.186 308.89 247.609 309.19 246.857 309.19ZM246.857 308.514C247.38 308.514 247.783 308.274 248.066 307.793C248.348 307.306 248.49 306.615 248.49 305.72C248.49 304.825 248.348 304.137 248.066 303.656C247.783 303.175 247.377 302.935 246.848 302.935C246.325 302.935 245.922 303.175 245.639 303.656C245.357 304.137 245.215 304.825 245.215 305.72C245.215 306.615 245.357 307.306 245.639 307.793C245.922 308.274 246.328 308.514 246.857 308.514ZM250.344 309.082V302.367H251.066V306.288L250.903 306.207L254.286 302.367H255.188L252.473 305.45L252.509 304.936L255.35 309.082H254.484L252.193 305.774L251.066 307.054V309.082H250.344Z" fill="black"/>
<path d="M274.9 309.19C274.473 309.19 274.085 309.109 273.736 308.947C273.388 308.785 273.093 308.568 272.852 308.298C272.612 308.022 272.44 307.718 272.338 307.388L272.988 307.144C273.144 307.601 273.388 307.949 273.718 308.19C274.049 308.424 274.443 308.541 274.9 308.541C275.189 308.541 275.441 308.496 275.658 308.406C275.88 308.31 276.051 308.178 276.172 308.01C276.292 307.841 276.352 307.646 276.352 307.424C276.352 307.093 276.262 306.838 276.082 306.658C275.901 306.477 275.643 306.339 275.306 306.243L274.097 305.882C273.622 305.744 273.255 305.513 272.997 305.188C272.744 304.864 272.618 304.494 272.618 304.08C272.618 303.725 272.705 303.413 272.879 303.142C273.054 302.866 273.291 302.65 273.592 302.493C273.899 302.337 274.244 302.259 274.629 302.259C275.032 302.259 275.393 302.334 275.712 302.484C276.036 302.629 276.31 302.821 276.533 303.061C276.755 303.302 276.914 303.569 277.011 303.863L276.379 304.116C276.235 303.719 276.009 303.419 275.703 303.214C275.402 303.01 275.047 302.908 274.638 302.908C274.38 302.908 274.151 302.953 273.953 303.043C273.76 303.133 273.61 303.262 273.502 303.431C273.394 303.599 273.339 303.797 273.339 304.026C273.339 304.302 273.427 304.551 273.601 304.774C273.775 304.99 274.043 305.152 274.404 305.26L275.468 305.576C275.997 305.732 276.397 305.957 276.668 306.252C276.938 306.546 277.074 306.916 277.074 307.361C277.074 307.721 276.981 308.04 276.794 308.316C276.614 308.586 276.358 308.8 276.027 308.956C275.703 309.112 275.327 309.19 274.9 309.19ZM274.512 309.983V301.466H275.143V309.983H274.512ZM278.241 309.082V308.631L280.073 306.567C280.439 306.153 280.734 305.813 280.957 305.549C281.185 305.284 281.35 305.047 281.453 304.837C281.555 304.62 281.606 304.389 281.606 304.143C281.606 303.74 281.492 303.431 281.263 303.214C281.041 302.998 280.74 302.89 280.361 302.89C279.976 302.89 279.649 303.004 279.378 303.232C279.113 303.461 278.933 303.779 278.837 304.188L278.187 304.044C278.266 303.677 278.404 303.362 278.602 303.097C278.807 302.833 279.056 302.629 279.351 302.484C279.652 302.334 279.985 302.259 280.352 302.259C280.743 302.259 281.086 302.34 281.38 302.502C281.681 302.665 281.916 302.887 282.084 303.169C282.252 303.452 282.337 303.776 282.337 304.143C282.337 304.401 282.282 304.651 282.174 304.891C282.072 305.125 281.919 305.378 281.714 305.648C281.51 305.912 281.251 306.222 280.938 306.576L279.27 308.451H282.508V309.082H278.241ZM285.797 309.19C285.039 309.19 284.456 308.89 284.047 308.289C283.638 307.688 283.434 306.832 283.434 305.72C283.434 304.608 283.635 303.755 284.038 303.16C284.447 302.559 285.03 302.259 285.788 302.259C286.546 302.259 287.126 302.559 287.529 303.16C287.938 303.755 288.142 304.608 288.142 305.72C288.142 306.832 287.938 307.688 287.529 308.289C287.126 308.89 286.549 309.19 285.797 309.19ZM285.797 308.514C286.32 308.514 286.723 308.274 287.006 307.793C287.288 307.306 287.429 306.615 287.429 305.72C287.429 304.825 287.288 304.137 287.006 303.656C286.723 303.175 286.317 302.935 285.788 302.935C285.265 302.935 284.862 303.175 284.579 303.656C284.297 304.137 284.155 304.825 284.155 305.72C284.155 306.615 284.297 307.306 284.579 307.793C284.862 308.274 285.268 308.514 285.797 308.514ZM291.205 309.19C290.448 309.19 289.864 308.89 289.456 308.289C289.047 307.688 288.842 306.832 288.842 305.72C288.842 304.608 289.044 303.755 289.447 303.16C289.855 302.559 290.439 302.259 291.196 302.259C291.954 302.259 292.534 302.559 292.937 303.16C293.346 303.755 293.551 304.608 293.551 305.72C293.551 306.832 293.346 307.688 292.937 308.289C292.534 308.89 291.957 309.19 291.205 309.19ZM291.205 308.514C291.729 308.514 292.132 308.274 292.414 307.793C292.697 307.306 292.838 306.615 292.838 305.72C292.838 304.825 292.697 304.137 292.414 303.656C292.132 303.175 291.726 302.935 291.196 302.935C290.673 302.935 290.27 303.175 289.988 303.656C289.705 304.137 289.564 304.825 289.564 305.72C289.564 306.615 289.705 307.306 289.988 307.793C290.27 308.274 290.676 308.514 291.205 308.514ZM294.692 309.082V302.367H295.414V306.288L295.252 306.207L298.634 302.367H299.536L296.821 305.45L296.857 304.936L299.699 309.082H298.833L296.542 305.774L295.414 307.054V309.082H294.692Z" fill="black"/>
<path d="M319.248 309.19C318.821 309.19 318.433 309.109 318.085 308.947C317.736 308.785 317.441 308.568 317.201 308.298C316.96 308.022 316.789 307.718 316.687 307.388L317.336 307.144C317.492 307.601 317.736 307.949 318.067 308.19C318.397 308.424 318.791 308.541 319.248 308.541C319.537 308.541 319.789 308.496 320.006 308.406C320.228 308.31 320.4 308.178 320.52 308.01C320.64 307.841 320.7 307.646 320.7 307.424C320.7 307.093 320.61 306.838 320.43 306.658C320.249 306.477 319.991 306.339 319.654 306.243L318.445 305.882C317.97 305.744 317.604 305.513 317.345 305.188C317.092 304.864 316.966 304.494 316.966 304.08C316.966 303.725 317.053 303.413 317.228 303.142C317.402 302.866 317.64 302.65 317.94 302.493C318.247 302.337 318.593 302.259 318.978 302.259C319.38 302.259 319.741 302.334 320.06 302.484C320.385 302.629 320.658 302.821 320.881 303.061C321.103 303.302 321.263 303.569 321.359 303.863L320.727 304.116C320.583 303.719 320.358 303.419 320.051 303.214C319.75 303.01 319.396 302.908 318.987 302.908C318.728 302.908 318.5 302.953 318.301 303.043C318.109 303.133 317.958 303.262 317.85 303.431C317.742 303.599 317.688 303.797 317.688 304.026C317.688 304.302 317.775 304.551 317.949 304.774C318.124 304.99 318.391 305.152 318.752 305.26L319.816 305.576C320.346 305.732 320.746 305.957 321.016 306.252C321.287 306.546 321.422 306.916 321.422 307.361C321.422 307.721 321.329 308.04 321.142 308.316C320.962 308.586 320.706 308.8 320.376 308.956C320.051 309.112 319.675 309.19 319.248 309.19ZM318.86 309.983V301.466H319.492V309.983H318.86ZM322.59 309.082V308.631L324.421 306.567C324.788 306.153 325.082 305.813 325.305 305.549C325.533 305.284 325.699 305.047 325.801 304.837C325.903 304.62 325.954 304.389 325.954 304.143C325.954 303.74 325.84 303.431 325.611 303.214C325.389 302.998 325.088 302.89 324.709 302.89C324.325 302.89 323.997 303.004 323.726 303.232C323.462 303.461 323.281 303.779 323.185 304.188L322.536 304.044C322.614 303.677 322.752 303.362 322.951 303.097C323.155 302.833 323.405 302.629 323.699 302.484C324 302.334 324.334 302.259 324.7 302.259C325.091 302.259 325.434 302.34 325.729 302.502C326.029 302.665 326.264 302.887 326.432 303.169C326.601 303.452 326.685 303.776 326.685 304.143C326.685 304.401 326.631 304.651 326.522 304.891C326.42 305.125 326.267 305.378 326.062 305.648C325.858 305.912 325.599 306.222 325.287 306.576L323.618 308.451H326.856V309.082H322.59ZM330.082 309.19C329.751 309.19 329.439 309.13 329.144 309.01C328.855 308.89 328.603 308.719 328.386 308.496C328.176 308.274 328.016 308.01 327.908 307.703L328.467 307.433C328.594 307.763 328.801 308.034 329.09 308.244C329.384 308.454 329.715 308.559 330.082 308.559C330.359 308.559 330.605 308.49 330.822 308.352C331.044 308.214 331.219 308.028 331.345 307.793C331.477 307.553 331.543 307.285 331.543 306.991C331.543 306.685 331.477 306.414 331.345 306.18C331.219 305.945 331.044 305.762 330.822 305.63C330.605 305.492 330.362 305.423 330.091 305.423C329.808 305.423 329.547 305.492 329.306 305.63C329.072 305.762 328.903 305.924 328.801 306.117L328.224 306.009L328.711 302.367H332.003V302.998H328.973L329.252 302.755L328.873 305.621L328.603 305.495C328.795 305.236 329.027 305.053 329.297 304.945C329.574 304.831 329.853 304.774 330.136 304.774C330.551 304.774 330.918 304.876 331.237 305.08C331.555 305.278 331.805 305.546 331.985 305.882C332.172 306.213 332.265 306.582 332.265 306.991C332.265 307.406 332.169 307.781 331.976 308.118C331.79 308.448 331.531 308.71 331.2 308.902C330.87 309.094 330.497 309.19 330.082 309.19ZM335.554 309.19C334.796 309.19 334.213 308.89 333.804 308.289C333.395 307.688 333.191 306.832 333.191 305.72C333.191 304.608 333.392 303.755 333.795 303.16C334.204 302.559 334.787 302.259 335.545 302.259C336.302 302.259 336.883 302.559 337.286 303.16C337.694 303.755 337.899 304.608 337.899 305.72C337.899 306.832 337.694 307.688 337.286 308.289C336.883 308.89 336.305 309.19 335.554 309.19ZM335.554 308.514C336.077 308.514 336.48 308.274 336.762 307.793C337.045 307.306 337.186 306.615 337.186 305.72C337.186 304.825 337.045 304.137 336.762 303.656C336.48 303.175 336.074 302.935 335.545 302.935C335.022 302.935 334.619 303.175 334.336 303.656C334.053 304.137 333.912 304.825 333.912 305.72C333.912 306.615 334.053 307.306 334.336 307.793C334.619 308.274 335.025 308.514 335.554 308.514ZM339.041 309.082V302.367H339.762V306.288L339.6 306.207L342.982 302.367H343.884L341.169 305.45L341.206 304.936L344.047 309.082H343.181L340.89 305.774L339.762 307.054V309.082H339.041Z" fill="black"/>
<path d="M363.597 309.19C363.17 309.19 362.782 309.109 362.433 308.947C362.084 308.785 361.79 308.568 361.549 308.298C361.309 308.022 361.137 307.718 361.035 307.388L361.684 307.144C361.841 307.601 362.084 307.949 362.415 308.19C362.746 308.424 363.14 308.541 363.597 308.541C363.885 308.541 364.138 308.496 364.354 308.406C364.577 308.31 364.748 308.178 364.868 308.01C364.989 307.841 365.049 307.646 365.049 307.424C365.049 307.093 364.959 306.838 364.778 306.658C364.598 306.477 364.339 306.339 364.002 306.243L362.794 305.882C362.319 305.744 361.952 305.513 361.693 305.188C361.441 304.864 361.315 304.494 361.315 304.08C361.315 303.725 361.402 303.413 361.576 303.142C361.75 302.866 361.988 302.65 362.289 302.493C362.595 302.337 362.941 302.259 363.326 302.259C363.729 302.259 364.09 302.334 364.408 302.484C364.733 302.629 365.007 302.821 365.229 303.061C365.452 303.302 365.611 303.569 365.707 303.863L365.076 304.116C364.932 303.719 364.706 303.419 364.399 303.214C364.099 303.01 363.744 302.908 363.335 302.908C363.076 302.908 362.848 302.953 362.649 303.043C362.457 303.133 362.307 303.262 362.198 303.431C362.09 303.599 362.036 303.797 362.036 304.026C362.036 304.302 362.123 304.551 362.298 304.774C362.472 304.99 362.74 305.152 363.1 305.26L364.165 305.576C364.694 305.732 365.094 305.957 365.365 306.252C365.635 306.546 365.77 306.916 365.77 307.361C365.77 307.721 365.677 308.04 365.491 308.316C365.31 308.586 365.055 308.8 364.724 308.956C364.399 309.112 364.024 309.19 363.597 309.19ZM363.209 309.983V301.466H363.84V309.983H363.209ZM368.977 309.19C368.646 309.19 368.336 309.13 368.048 309.01C367.759 308.89 367.506 308.719 367.29 308.496C367.079 308.274 366.92 308.01 366.812 307.703L367.389 307.433C367.527 307.781 367.735 308.058 368.012 308.262C368.294 308.46 368.616 308.559 368.977 308.559C369.265 308.559 369.521 308.502 369.743 308.388C369.972 308.268 370.149 308.097 370.276 307.874C370.402 307.652 370.465 307.382 370.465 307.063C370.465 306.745 370.399 306.474 370.267 306.252C370.14 306.03 369.963 305.861 369.734 305.747C369.512 305.633 369.259 305.576 368.977 305.576C368.898 305.576 368.814 305.579 368.724 305.585C368.634 305.591 368.556 305.6 368.49 305.612L368.354 305.296L370.095 302.998H367.119V302.367H370.916V302.998L369.265 305.134L369.184 305.017C369.575 305.029 369.921 305.125 370.221 305.305C370.522 305.48 370.757 305.717 370.925 306.018C371.099 306.318 371.187 306.667 371.187 307.063C371.187 307.46 371.09 307.82 370.898 308.145C370.711 308.463 370.453 308.719 370.122 308.911C369.791 309.097 369.41 309.19 368.977 309.19ZM374.494 309.19C373.736 309.19 373.153 308.89 372.744 308.289C372.335 307.688 372.13 306.832 372.13 305.72C372.13 304.608 372.332 303.755 372.735 303.16C373.144 302.559 373.727 302.259 374.484 302.259C375.242 302.259 375.822 302.559 376.224 303.16C376.634 303.755 376.837 304.608 376.837 305.72C376.837 306.832 376.634 307.688 376.224 308.289C375.822 308.89 375.245 309.19 374.494 309.19ZM374.494 308.514C375.017 308.514 375.42 308.274 375.702 307.793C375.984 307.306 376.127 306.615 376.127 305.72C376.127 304.825 375.984 304.137 375.702 303.656C375.42 303.175 375.014 302.935 374.484 302.935C373.961 302.935 373.558 303.175 373.276 303.656C372.993 304.137 372.852 304.825 372.852 305.72C372.852 306.615 372.993 307.306 373.276 307.793C373.558 308.274 373.964 308.514 374.494 308.514ZM379.904 309.19C379.144 309.19 378.562 308.89 378.152 308.289C377.743 307.688 377.54 306.832 377.54 305.72C377.54 304.608 377.739 303.755 378.145 303.16C378.551 302.559 379.137 302.259 379.892 302.259C380.652 302.259 381.23 302.559 381.632 303.16C382.042 303.755 382.249 304.608 382.249 305.72C382.249 306.832 382.042 307.688 381.632 308.289C381.23 308.89 380.655 309.19 379.904 309.19ZM379.904 308.514C380.426 308.514 380.828 308.274 381.11 307.793C381.392 307.306 381.535 306.615 381.535 305.72C381.535 304.825 381.392 304.137 381.11 303.656C380.828 303.175 380.422 302.935 379.892 302.935C379.37 302.935 378.968 303.175 378.686 303.656C378.4 304.137 378.261 304.825 378.261 305.72C378.261 306.615 378.4 307.306 378.686 307.793C378.968 308.274 379.374 308.514 379.904 308.514ZM383.388 309.082V302.367H384.109V306.288L383.948 306.207L387.33 302.367H388.232L385.519 305.45L385.552 304.936L388.394 309.082H387.529L385.237 305.774L384.109 307.054V309.082H383.388Z" fill="black"/>
<path d="M409.072 309.19C408.644 309.19 408.256 309.109 407.907 308.947C407.561 308.785 407.264 308.568 407.024 308.298C406.783 308.022 406.614 307.718 406.509 307.388L407.159 307.144C407.317 307.601 407.561 307.949 407.892 308.19C408.223 308.424 408.613 308.541 409.072 308.541C409.361 308.541 409.613 308.496 409.831 308.406C410.053 308.31 410.222 308.178 410.342 308.01C410.463 307.841 410.523 307.646 410.523 307.424C410.523 307.093 410.432 306.838 410.252 306.658C410.072 306.477 409.816 306.339 409.478 306.243L408.268 305.882C407.794 305.744 407.426 305.513 407.17 305.188C406.915 304.864 406.791 304.494 406.791 304.08C406.791 303.725 406.877 303.413 407.05 303.142C407.227 302.866 407.463 302.65 407.764 302.493C408.072 302.337 408.418 302.259 408.801 302.259C409.204 302.259 409.564 302.334 409.884 302.484C410.207 302.629 410.481 302.821 410.703 303.061C410.929 303.302 411.086 303.569 411.184 303.863L410.553 304.116C410.406 303.719 410.181 303.419 409.876 303.214C409.576 303.01 409.219 302.908 408.809 302.908C408.553 302.908 408.324 302.953 408.125 303.043C407.933 303.133 407.783 303.262 407.674 303.431C407.565 303.599 407.512 303.797 407.512 304.026C407.512 304.302 407.599 304.551 407.772 304.774C407.948 304.99 408.215 305.152 408.576 305.26L409.639 305.576C410.169 305.732 410.568 305.957 410.838 306.252C411.109 306.546 411.244 306.916 411.244 307.361C411.244 307.721 411.154 308.04 410.966 308.316C410.786 308.586 410.53 308.8 410.199 308.956C409.876 309.112 409.5 309.19 409.072 309.19ZM408.685 309.983V301.466H409.316V309.983H408.685ZM414.454 309.19C414.123 309.19 413.811 309.13 413.522 309.01C413.236 308.89 412.981 308.719 412.766 308.496C412.556 308.274 412.394 308.01 412.289 307.703L412.864 307.433C413.003 307.781 413.21 308.058 413.488 308.262C413.77 308.46 414.093 308.559 414.454 308.559C414.74 308.559 414.995 308.502 415.221 308.388C415.446 308.268 415.626 308.097 415.751 307.874C415.878 307.652 415.942 307.382 415.942 307.063C415.942 306.745 415.875 306.474 415.743 306.252C415.615 306.03 415.439 305.861 415.209 305.747C414.988 305.633 414.736 305.576 414.454 305.576C414.375 305.576 414.289 305.579 414.198 305.585C414.108 305.591 414.033 305.6 413.965 305.612L413.83 305.296L415.57 302.998H412.594V302.367H416.393V302.998L414.74 305.134L414.661 305.017C415.052 305.029 415.397 305.125 415.698 305.305C415.999 305.48 416.232 305.717 416.401 306.018C416.574 306.318 416.664 306.667 416.664 307.063C416.664 307.46 416.566 307.82 416.374 308.145C416.186 308.463 415.927 308.719 415.596 308.911C415.266 309.097 414.886 309.19 414.454 309.19ZM419.907 309.19C419.577 309.19 419.261 309.13 418.968 309.01C418.678 308.89 418.426 308.719 418.208 308.496C417.998 308.274 417.84 308.01 417.731 307.703L418.291 307.433C418.419 307.763 418.626 308.034 418.915 308.244C419.208 308.454 419.539 308.559 419.907 308.559C420.182 308.559 420.43 308.49 420.644 308.352C420.869 308.214 421.042 308.028 421.17 307.793C421.302 307.553 421.365 307.285 421.365 306.991C421.365 306.685 421.302 306.414 421.17 306.18C421.042 305.945 420.869 305.762 420.644 305.63C420.43 305.492 420.185 305.423 419.915 305.423C419.633 305.423 419.37 305.492 419.129 305.63C418.896 305.762 418.727 305.924 418.626 306.117L418.047 306.009L418.535 302.367H421.828V302.998H418.795L419.077 302.755L418.697 305.621L418.426 305.495C418.618 305.236 418.851 305.053 419.122 304.945C419.396 304.831 419.678 304.774 419.96 304.774C420.373 304.774 420.742 304.876 421.061 305.08C421.381 305.278 421.629 305.546 421.809 305.882C421.997 306.213 422.087 306.582 422.087 306.991C422.087 307.406 421.993 307.781 421.801 308.118C421.614 308.448 421.354 308.71 421.023 308.902C420.693 309.094 420.321 309.19 419.907 309.19ZM425.379 309.19C424.62 309.19 424.038 308.89 423.628 308.289C423.218 307.688 423.015 306.832 423.015 305.72C423.015 304.608 423.215 303.755 423.62 303.16C424.026 302.559 424.613 302.259 425.368 302.259C426.127 302.259 426.706 302.559 427.108 303.16C427.518 303.755 427.725 304.608 427.725 305.72C427.725 306.832 427.518 307.688 427.108 308.289C426.706 308.89 426.131 309.19 425.379 309.19ZM425.379 308.514C425.902 308.514 426.304 308.274 426.586 307.793C426.868 307.306 427.011 306.615 427.011 305.72C427.011 304.825 426.868 304.137 426.586 303.656C426.304 303.175 425.898 302.935 425.368 302.935C424.846 302.935 424.444 303.175 424.162 303.656C423.876 304.137 423.737 304.825 423.737 305.72C423.737 306.615 423.876 307.306 424.162 307.793C424.444 308.274 424.849 308.514 425.379 308.514ZM428.863 309.082V302.367H429.585V306.288L429.423 306.207L432.806 302.367H433.708L430.994 305.45L431.028 304.936L433.869 309.082H433.005L430.712 305.774L429.585 307.054V309.082H428.863Z" fill="black"/>
<path d="M359.297 208.809H279.244C271.357 208.809 264.963 215.198 264.963 223.08C264.963 230.962 271.357 237.351 279.244 237.351H359.297C367.184 237.351 373.578 230.962 373.578 223.08C373.578 215.198 367.184 208.809 359.297 208.809Z" fill="#E3EEF3" stroke="black" stroke-width="2"/>
<path d="M418.678 252.373H307.808C299.92 252.373 293.526 258.763 293.526 266.644C293.526 274.526 299.92 280.916 307.808 280.916H418.678C426.566 280.916 432.96 274.526 432.96 266.644C432.96 258.763 426.566 252.373 418.678 252.373Z" fill="#E3EEF3" stroke="black" stroke-width="2"/>
<path d="M363.055 274.156C367.206 274.156 370.572 270.793 370.572 266.644C370.572 262.496 367.206 259.133 363.055 259.133C358.904 259.133 355.538 262.496 355.538 266.644C355.538 270.793 358.904 274.156 363.055 274.156Z" fill="#5489AD"/>
<path d="M319.082 230.591C323.234 230.591 326.599 227.228 326.599 223.08C326.599 218.932 323.234 215.569 319.082 215.569C314.931 215.569 311.566 218.932 311.566 223.08C311.566 227.228 314.931 230.591 319.082 230.591Z" fill="#5489AD"/>
<path d="M287.512 165.244H234.896C227.008 165.244 220.614 171.634 220.614 179.515C220.614 187.397 227.008 193.787 234.896 193.787H287.512C295.4 193.787 301.794 187.397 301.794 179.515C301.794 171.634 295.4 165.244 287.512 165.244Z" fill="#E3EEF3" stroke="black" stroke-width="2"/>
<path d="M261.204 187.027C265.356 187.027 268.721 183.664 268.721 179.516C268.721 175.367 265.356 172.004 261.204 172.004C257.053 172.004 253.688 175.367 253.688 179.516C253.688 183.664 257.053 187.027 261.204 187.027Z" fill="#5489AD"/>
<path d="M260.452 121.68H219.862C211.975 121.68 205.581 128.069 205.581 135.951C205.581 143.833 211.975 150.222 219.862 150.222H260.452C268.34 150.222 274.734 143.833 274.734 135.951C274.734 128.069 268.34 121.68 260.452 121.68Z" fill="#E3EEF3" stroke="black" stroke-width="2"/>
<path d="M240.158 143.462C244.309 143.462 247.674 140.099 247.674 135.951C247.674 131.803 244.309 128.44 240.158 128.44C236.006 128.44 232.641 131.803 232.641 135.951C232.641 140.099 236.006 143.462 240.158 143.462Z" fill="#5489AD"/>
<path d="M191.299 78.1155H165.742C157.855 78.1155 151.461 84.5049 151.461 92.3866C151.461 100.268 157.855 106.658 165.742 106.658H191.299C199.187 106.658 205.581 100.268 205.581 92.3866C205.581 84.5049 199.187 78.1155 191.299 78.1155Z" fill="#E3EEF3" stroke="black" stroke-width="2"/>
<path d="M178.521 99.8977C182.672 99.8977 186.037 96.5349 186.037 92.3866C186.037 88.2383 182.672 84.8755 178.521 84.8755C174.369 84.8755 171.004 88.2383 171.004 92.3866C171.004 96.5349 174.369 99.8977 178.521 99.8977Z" fill="#5489AD"/>
<path d="M140.186 34.551H129.663C121.775 34.551 115.381 40.9404 115.381 48.8221C115.381 56.7039 121.775 63.0932 129.663 63.0932H140.186C148.073 63.0932 154.468 56.7039 154.468 48.8221C154.468 40.9404 148.073 34.551 140.186 34.551Z" fill="#E3EEF3" stroke="black" stroke-width="2"/>
<path d="M134.924 56.3333C139.075 56.3333 142.441 52.9704 142.441 48.8221C142.441 44.6739 139.075 41.311 134.924 41.311C130.773 41.311 127.407 44.6739 127.407 48.8221C127.407 52.9704 130.773 56.3333 134.924 56.3333Z" fill="#5489AD"/>
<path d="M444.987 0.563232H6.0133C3.00358 0.563232 0.563721 3.00129 0.563721 6.00879V331.991C0.563721 334.999 3.00358 337.437 6.0133 337.437H444.987C447.996 337.437 450.436 334.999 450.436 331.991V6.00879C450.436 3.00129 447.996 0.563232 444.987 0.563232Z" stroke="black" stroke-width="3"/>
</g>
<defs>
<clipPath id="clip0_1_84">
<rect width="451" height="338" fill="white"/>
</clipPath>
</defs>
</svg>
