<svg width="36" height="36" viewBox="0 0 36 36" fill="none" xmlns="http://www.w3.org/2000/svg">
<g clip-path="url(#clip0_1_354)">
<path d="M15.2248 16.1535C14.8596 16.7024 14.6653 17.3473 14.6666 18.0066C14.6675 18.4443 14.7545 18.8777 14.9228 19.2818C15.0911 19.6859 15.3374 20.0529 15.6475 20.3618C15.9577 20.6708 16.3257 20.9156 16.7304 21.0823C17.1352 21.249 17.5689 21.3343 18.0067 21.3334C18.6659 21.3321 19.31 21.1353 19.8575 20.7679C20.4049 20.4006 20.8311 19.8791 21.0822 19.2695C21.3333 18.6599 21.398 17.9896 21.2681 17.3432C21.1382 16.6968 20.8196 16.1035 20.3525 15.6382C19.8853 15.173 19.2908 14.8567 18.6439 14.7293C17.997 14.602 17.3269 14.6693 16.7183 14.9228C16.1097 15.1763 15.59 15.6046 15.2248 16.1535Z" fill="white"/>
<path fill-rule="evenodd" clip-rule="evenodd" d="M12.118 25.8074C12.4708 25.943 13.0002 26.105 13.9752 26.1474C15.0298 26.193 15.345 26.2038 18.0155 26.198C20.6859 26.1922 21.0019 26.1818 22.0565 26.1322C23.0303 26.0858 23.5597 25.9218 23.9117 25.7844C24.3785 25.602 24.7111 25.3856 25.0603 25.0344C25.4095 24.6832 25.6265 24.3502 25.8065 23.8832C25.9423 23.53 26.1039 23.0004 26.1465 22.0254C26.1927 20.9716 26.2021 20.6546 26.1973 17.9854C26.1925 15.3162 26.1811 15 26.1309 13.9454C26.0849 12.9702 25.9213 12.4416 25.7835 12.0902C25.6011 11.6226 25.3845 11.2907 25.0331 10.9411C24.6817 10.5915 24.3491 10.3753 23.8817 10.1953C23.5295 10.0591 22.9993 9.89771 22.0251 9.85531C20.9701 9.80891 20.6533 9.79891 17.9839 9.80471C15.3144 9.81051 14.9984 9.82051 13.9438 9.87051C12.9692 9.91691 12.4404 10.0805 12.088 10.2181C11.6214 10.4005 11.2884 10.6169 10.9394 10.9683C10.5904 11.3197 10.3736 11.652 10.1936 12.1198C10.0582 12.4724 9.89519 13.0024 9.85359 13.9766C9.80739 15.0308 9.79719 15.3468 9.80299 18.0166C9.80879 20.6864 9.81919 21.0028 9.86879 22.0566C9.91439 23.0316 10.0794 23.5604 10.2164 23.9132C10.3988 24.3794 10.6148 24.7134 10.9664 25.0616C11.318 25.4098 11.6508 25.6274 12.118 25.8074ZM22.3308 13.3215C22.1986 13.1244 22.1279 12.8925 22.1275 12.6552C22.1269 12.337 22.2528 12.0316 22.4774 11.8062C22.702 11.5808 23.0069 11.4538 23.3251 11.4532C23.5624 11.4527 23.7946 11.5226 23.9922 11.6541C24.1898 11.7856 24.344 11.9727 24.4352 12.1918C24.5265 12.4109 24.5507 12.6522 24.5049 12.8851C24.459 13.1179 24.3451 13.332 24.1776 13.5001C24.01 13.6683 23.7964 13.783 23.5637 13.8297C23.331 13.8764 23.0896 13.8531 22.8702 13.7626C22.6507 13.6722 22.463 13.5187 22.3308 13.3215ZM18.0097 23.1342C15.1742 23.1396 12.871 20.8458 12.8654 18.0098C12.86 15.1742 15.1542 12.8706 17.9901 12.865C20.8259 12.8594 23.1297 15.1538 23.1351 17.9898C23.1405 20.8258 20.8451 23.1288 18.0097 23.1342Z" fill="white"/>
<path fill-rule="evenodd" clip-rule="evenodd" d="M18 36C27.9411 36 36 27.9411 36 18C36 8.05887 27.9411 0 18 0C8.05887 0 0 8.05887 0 18C0 27.9411 8.05887 36 18 36ZM11.4326 8.53954C12.0678 8.28994 12.7944 8.12014 13.8584 8.06994C14.925 8.01794 15.265 8.00634 17.9809 8.00114C20.6967 7.99594 21.0393 8.00774 22.1037 8.05374C23.1681 8.09974 23.8951 8.26754 24.5315 8.51374C25.1901 8.76734 25.7485 9.10834 26.3049 9.66334C26.8613 10.2183 27.2043 10.7749 27.4613 11.4324C27.7107 12.0682 27.8801 12.7924 27.9307 13.8588C27.9813 14.9252 27.9935 15.2656 27.9987 17.9808C28.0039 20.696 27.9929 21.0368 27.9463 22.1042C27.9001 23.1678 27.7327 23.8952 27.4863 24.5312C27.2321 25.19 26.8909 25.748 26.3367 26.3048C25.7825 26.8616 25.2251 27.2044 24.5677 27.4616C23.9321 27.71 23.2095 27.8804 22.1429 27.931C21.0763 27.9816 20.7345 27.9936 18.0197 27.9988C15.3048 28.004 14.9622 27.9932 13.8978 27.9466C12.8334 27.9 12.106 27.7324 11.47 27.4866C10.81 27.2318 10.2528 26.8912 9.69622 26.3366C9.13962 25.782 8.79622 25.225 8.53962 24.5676C8.29002 23.9322 8.12082 23.2058 8.07002 22.142C8.01842 21.0752 8.00642 20.7348 8.00122 18.0192C7.99602 15.3036 8.00642 14.9614 8.05342 13.8968C8.10042 12.8322 8.26722 12.105 8.51342 11.4683C8.76782 10.8099 9.10922 10.2523 9.66362 9.69594C10.218 9.13954 10.7752 8.79574 11.4326 8.53954Z" fill="white"/>
</g>
<defs>
<clipPath id="clip0_1_354">
<rect width="36" height="36" fill="white"/>
</clipPath>
</defs>
</svg>
