<svg width="38" height="38" viewBox="0 0 38 38" fill="none" xmlns="http://www.w3.org/2000/svg">
<g clip-path="url(#clip0_1_352)">
<path d="M19 0C8.50646 0 0 8.50645 0 19C0 29.4935 8.50646 38 19 38C29.4935 38 38 29.4935 38 19C38 8.50645 29.4935 0 19 0ZM14.349 26.8751H10.5014V14.4934H14.349V26.8751ZM12.4015 12.9734C11.1862 12.9734 10.4005 12.1124 10.4005 11.0477C10.4005 9.96115 11.21 9.12594 12.4509 9.12594C13.6918 9.12594 14.4518 9.96115 14.4756 11.0477C14.4756 12.1124 13.6918 12.9734 12.4015 12.9734ZM28.401 26.8751H24.5536V20.0134C24.5536 18.4161 23.9954 17.3316 22.6041 17.3316C21.5413 17.3316 20.9099 18.0658 20.6308 18.7724C20.5279 19.0237 20.5021 19.38 20.5021 19.7342V26.8731H16.6527V18.4419C16.6527 16.8961 16.6032 15.6037 16.5518 14.4915H19.8945L20.0707 16.2113H20.1479C20.6545 15.4039 21.8955 14.2124 23.9717 14.2124C26.503 14.2124 28.401 15.9085 28.401 19.5542V26.8751Z" fill="white"/>
</g>
<defs>
<clipPath id="clip0_1_352">
<rect width="38" height="38" fill="white"/>
</clipPath>
</defs>
</svg>
