<svg width="38" height="38" viewBox="0 0 38 38" fill="none" xmlns="http://www.w3.org/2000/svg">
<g clip-path="url(#clip0_1_358)">
<path d="M19 38C29.4934 38 38 29.4934 38 19C38 8.50659 29.4934 0 19 0C8.50659 0 0 8.50659 0 19C0 29.4934 8.50659 38 19 38Z" fill="white"/>
<path d="M26.4088 13.722V13.7128C26.5707 13.6495 26.6983 13.5154 26.8268 13.4161C27.407 12.9688 27.7843 12.3798 28.0625 11.6269C27.905 11.7134 27.7469 11.7999 27.5888 11.8864C27.1012 12.134 26.274 12.4898 25.6373 12.5444C24.8871 11.8605 24.1022 11.3227 22.6269 11.3485C22.472 11.3671 22.3172 11.3857 22.1623 11.4042C21.8615 11.4701 21.5749 11.5517 21.3164 11.6637C20.2362 12.1328 19.4997 13.008 19.1609 14.2222C19.0261 14.7052 18.9712 15.5124 19.1424 16.0114C18.5329 16.0105 17.9429 15.9144 17.4327 15.7888C15.4217 15.2938 14.1692 14.6251 12.7786 13.5366C12.3702 13.217 11.9696 12.8547 11.645 12.4521C11.5403 12.3224 11.3752 12.2086 11.3013 12.0533C11.2949 12.0504 11.2888 12.0472 11.2827 12.044C11.1211 12.3436 10.9694 12.6681 10.874 13.0358C10.4969 14.4854 11.093 15.7028 11.7288 16.4935C11.9214 16.7333 12.2338 16.8819 12.4256 17.1054H12.4441C12.3 17.1588 12.0494 17.0848 11.9238 17.059C11.6267 16.9977 11.3735 16.9414 11.1246 16.8366C10.9947 16.7748 10.8644 16.713 10.7345 16.6511C10.7284 18.2526 11.5368 19.2935 12.5277 19.9141C12.8508 20.1164 13.3027 20.3889 13.7726 20.4145C13.5212 20.627 12.4456 20.5294 12.0723 20.4888C12.539 21.6911 13.256 22.4916 14.488 22.9265C14.8059 23.0388 15.1937 23.1381 15.6215 23.1305C15.3944 23.4005 14.9097 23.6205 14.5901 23.8071C13.931 24.1929 13.1658 24.4431 12.3043 24.6324C11.9589 24.7078 11.5916 24.6925 11.2172 24.7525C10.8032 24.8193 10.3702 24.7174 10 24.7061C10.1114 24.774 10.2231 24.8425 10.3345 24.9102C10.6742 25.1171 11.0289 25.2985 11.4124 25.4663C12.1024 25.7685 12.8378 25.9964 13.6517 26.1987C15.2929 26.6062 17.6082 26.423 19.0408 25.9763C23.0304 24.7319 25.5505 21.8275 26.5019 17.5498C26.6655 16.814 26.6893 15.9783 26.6786 15.1026C26.877 14.9449 27.0751 14.7873 27.2732 14.6297C27.7643 14.2361 28.2247 13.6875 28.5646 13.1464V13.1371C27.9172 13.3403 27.2355 13.7133 26.4088 13.722Z" fill="black"/>
</g>
<defs>
<clipPath id="clip0_1_358">
<rect width="38" height="38" fill="white"/>
</clipPath>
</defs>
</svg>
